<svg enable-background="new 0 0 1815.1 368.5" viewBox="0 0 1815.1 368.5" xmlns="http://www.w3.org/2000/svg"><g fill="#fff"><path d="m283.5 0h-99.2v184.3h-70.9l8.5 99.2h161.6z"/><path d="m161.6 0h-161.6v368.5h99.2v-269.3h70.9z"/><path d="m1483.9 43.9c-54.5 0-98.7 43.8-98.7 97.8s44.2 97.8 98.7 97.8 98.7-43.8 98.7-97.8c.1-54-44.1-97.8-98.7-97.8zm0 164.9c-35.5 0-64.3-30-64.3-67.1s28.8-67.1 64.3-67.1 64.3 30 64.3 67.1-28.8 67.1-64.3 67.1z"/><path d="m682.2 155.9h94.5v-30.2h-94.5v-48.4h105.8v-30.1h-139.8v189h141.7v-30h-107.7z"/><path d="m1716.9 206v-158.8h-34.1v189h132.3v-30.2z"/><path d="m480.9 47.2h-74.6v189h34v-60.5h40.6c41.1 0 70.9-28.8 70.9-64.3s-21.7-64.2-70.9-64.2zm-2.8 98.3h-37.8v-68h37.8c28 0 40.6 15.2 40.6 34s-14.6 34-40.6 34z"/><path d="m1052.6 111.5c0-35.5-21.7-64.3-70.9-64.3h-74.6v189h34v-60.5h37l42.3 60.5h39.7l-46.8-66.8c24-10.4 39.3-32.4 39.3-57.9zm-73.7 34h-37.8v-68h37.8c28 0 40.6 15.2 40.6 34s-14.6 34-40.6 34z"/><path d="m1274.7 140.1c-12-7.7-26.6-11.7-44.3-16.2-32.2-8.1-37.4-13.9-37.4-24.7 0-16.3 15.9-23.6 31.6-23.6 22.8 0 42.1 11 51.7 17.5 7.2 4.9 12.6 9.8 16.4 13.9v-41.6c-14.4-9.5-38.7-21.9-68-21.9-36.9 0-63.7 23.4-63.7 55.7 0 40.3 38.6 50 61.7 55.8 35.8 9 44 14.5 44 29.2 0 7.5-2.6 12.5-8.5 16.2-6.6 4.2-17.2 6.5-29.6 6.5-27.3 0-57.1-19.7-66.1-28.6v39.9c.6.3 1.1.7 1.7 1 12.5 7.4 37.6 19.9 64.4 19.9 43.4 0 70.3-21 70.3-54.8-.2-19.2-8.3-34.1-24.2-44.2z"/></g></svg>