<svg viewBox="0 0 22.8 21.7" xmlns="http://www.w3.org/2000/svg"><g fill="#e39237"><path d="m20.92 6.79-1.54 1.55a9 9 0 0 1 .36 2.51 8.9 8.9 0 1 1 -3.11-6.75l1.37-1.39a10.85 10.85 0 0 0 -18 8.14 10.85 10.85 0 0 0 18.52 7.67 10.77 10.77 0 0 0 3.18-7.67 10.94 10.94 0 0 0 -.78-4.06z"/><path d="m22.67 3.93-2.09 2.07-1.49 1.51-8 8a.43.43 0 0 1 -.63 0l-2.07-2.07-3.09-3.09a.44.44 0 0 1 0-.62l1.76-1.73a.44.44 0 0 1 .62 0l2.78 2.78a.45.45 0 0 0 .63 0l9.2-9.2a.45.45 0 0 1 .63 0l1.75 1.72a.45.45 0 0 1 0 .63z"/></g></svg>