<svg viewBox="0 0 190 190" xmlns="http://www.w3.org/2000/svg"><circle cx="95" cy="95" fill="#fff" r="92.5"/><g fill="#b12028"><path d="m95 5a90 90 0 1 1 -90 90 90 90 0 0 1 90-90m0-5a95 95 0 1 0 95 95 95.11 95.11 0 0 0 -95-95z"/><path d="m159.79 114.09c-.37-1.12-15.77-39.2-16.06-39.88s-.94-.94-2.13-.58-15.38 6-16.06 6.21-1.61 1-1.23 2 1.57 3.89 1.57 3.89l-6.26 2a5.07 5.07 0 0 1 -3.07.08c-1.12-.57-14.27-5.57-14.27-5.57s-3.68-1.21-5.51-.74a22.47 22.47 0 0 0 -5.23 2.53 1.92 1.92 0 0 1 -1.44.21c-4.59-2.22-7.32-1.14-8.9-.57s-9.76 6.12-10.27 6.33-4.23-2-4.23-2l1-2.44s2-2.66.43-3.67-13.64-6.82-14.86-7.39-2.44-2-3.59.29-19.52 38.69-19.52 38.69a1 1 0 0 0 .38 1.41c1.2.79 14.69 7.48 15.93 8s1.92.48 2.37.2 2-3.74 2-3.74 4.7 2.3 6.73 3.68c-1.31 6.38 4 7.58 5.87 8.61 1.41 5.36 4.87 5.63 6.49 6.25 3 4.5 5.25 4.6 7.72 4.39 2 2.37 3.88 3.57 5.12 3.78a4.77 4.77 0 0 0 3.67-.79 20.52 20.52 0 0 0 2.2-2.64s5.45 4 7 4.43a11.51 11.51 0 0 0 5.6-.24c1.41-.45 3.78-3.33 4.87-4.78a8.6 8.6 0 0 0 8.38-3.46 11.5 11.5 0 0 1 1.27-1.55 16.7 16.7 0 0 0 3.26 0c4.19-1.34 5-3.06 5.77-4a10.19 10.19 0 0 1 1.82-2.27c2.74-.34 3.64-.37 5.63-2a8.12 8.12 0 0 0 2.78-6.11c0-1-.41-2.27-.31-2.75s2.54-1 2.54-1 1.48-.68 1.65-.27 1.1 2.74 1.37 3.5a1.8 1.8 0 0 0 2 1.1c1.47-.76 15.89-6.29 16.87-6.67s1.03-1.34.65-2.47zm-112.67 5.81-13.26-6.9 18-35.91 13.27 6.63zm18.41 8.1a2.4 2.4 0 0 1 -2.46.3 18.84 18.84 0 0 1 -2.7-2.2c-.32-.38.05-1.76.55-2.19a2 2 0 0 1 2.33-.54c.88.52 2.75 1.63 2.9 2.36a2.47 2.47 0 0 1 -.62 2.27zm5 6.6c-.34.42-2.22-.42-2.59-.82-.91-1-1.82-1.54-1.15-2.58s2.64-4.27 3.46-4.47a2.88 2.88 0 0 1 3.09.76c1.43 1.21 0 3.43 0 3.43s-2.44 3.23-2.78 3.65zm6.72 4.63a1.9 1.9 0 0 1 -2.25 0c-1.1-.62-2.31-1.52-2-2.53s2.87-4.1 2.87-4.1c1.21-1.69 2.78-4.25 3.68-4.36a3.07 3.07 0 0 1 2.19.76c.45.36 1.8 1.91-.11 4.36s-3.85 5.51-4.35 5.84zm10.34-.64a31.82 31.82 0 0 1 -3 4.44c-.62.45-2 0-3.12-.9s-1.29-1.72-.53-2.81a20.89 20.89 0 0 1 1.38-1.8c.7-1.1 1.68-3 4.13-2.11a2.73 2.73 0 0 1 1.17 3.15zm42.68-12c-1.91 1.41-3.54 1.69-4.72 1s-11.55-11.29-12.55-12.19a1.7 1.7 0 0 0 -1.95.15 1.77 1.77 0 0 0 -.18 1.91c.41.53 11.31 11.17 11.76 11.66s.53 2.36-1.42 3.63a6.29 6.29 0 0 1 -5 1.24c-.86-.19-10.3-10-10.83-10.64s-1.68-.23-2.17.26-.49 1.5.45 2.4 8.24 8.24 8.69 8.73.49 1.68-1.12 2.81-1.8 1.83-5.51 1.46c-.52-.15-7.31-7.08-8.05-7.76s-1.84.49-1.84.49-.9.94-.11 1.72 5.77 5.77 6.48 6.6.56 1.53-.3 2.28-2.06 2.29-4.12 1.95-4.57-1.8-7.38-4.08c.22-1.46.83-3.16-.45-5.25a6 6 0 0 0 -4.24-2.88s.23-3.75-2.25-5.51-4.94-1.61-6.85 0c0 0-3-4.87-8-2.29 0 0-2.58-5.28-9.14-3.52l-7.42-4.16 13.17-25.7s4.66 2.25 5.73 2.19 10.91-7.09 12.82-7.09h4.16s-3.49 2.42-3.93 3.21-4.27 7.65-4.38 9.44-.23 7.09 5.84 7.82c2.36.16 5-.06 6.35-3s2.7-6.07 4.84-5.79c2.25.79 20.29 9.22 21 9.78s13.09 12.87 13.6 13.6a4 4 0 0 1 -.95 5.47zm1.75-9s-11.55-11.59-12.73-12.59c-1.41-.78-21.53-10.39-22.54-10.79-1.07 0-4.22 1.8-5 2.7a31.65 31.65 0 0 0 -2.64 5.17 3.42 3.42 0 0 1 -3.11 1.69c-1.29-.23-3.65-1.91-3.54-3.77s2.13-5.06 2.13-5.06l1.8-3.82s8.1-6.63 11.92-6.74c1.51.05 17.31 6.52 18.32 6.8a4.63 4.63 0 0 0 2.81-.34c.73-.28 7.42-2.25 7.42-2.25l10.85 27.09zm10.56 2.31-14.89-37.6 14-5.46 14.9 37.66z"/><path d="m79.16 72.69a1.4 1.4 0 0 1 -1-.38l-15-14.13a1.38 1.38 0 1 1 1.9-2l15 14.13a1.38 1.38 0 0 1 -.94 2.39z"/><path d="m110.85 72.69a1.38 1.38 0 0 1 -.95-2.39l15-14.13a1.38 1.38 0 0 1 1.89 2l-15 14.13a1.36 1.36 0 0 1 -.94.39z"/><path d="m95.08 71.88a1.38 1.38 0 0 1 -1.38-1.38v-26.5a1.38 1.38 0 1 1 2.76 0v26.5a1.38 1.38 0 0 1 -1.38 1.38z"/></g></svg>