<svg viewBox="0 0 190 190" xmlns="http://www.w3.org/2000/svg"><circle cx="95" cy="95" fill="#fff" r="92.5"/><path d="m95 5a90 90 0 1 1 -90 90 90 90 0 0 1 90-90m0-5a95 95 0 1 0 95 95 95.11 95.11 0 0 0 -95-95z" fill="#b12028"/><g fill="none" stroke="#b12028" stroke-linecap="round" stroke-linejoin="round" stroke-width="3.1"><path d="m43.36 145h103.28"/><path d="m53.54 145v-100h60.16v100"/><path d="m113.7 62.14h22.92v82.86"/><path d="m125.16 73.52v7.58"/><path d="m125.16 91.21v7.58"/><path d="m125.16 108.9v7.58"/><path d="m125.16 126.6v7.58"/><path d="m61.25 55.71h44.75"/><path d="m61.25 65.93h44.75"/><path d="m61.25 76.15h44.75"/><path d="m61.25 86.37h44.75"/><path d="m61.25 96.59h44.75"/><path d="m61.25 106.81h44.75"/><path d="m61.25 117.03h44.75"/><path d="m61.25 127.25h44.75"/><path d="m61.25 137.34h10.36"/><path d="m95.63 137.34h10.37"/><path d="m77.72 133.2h11.8v11.8h-11.8z"/></g></svg>