<svg viewBox="0 0 190 190" xmlns="http://www.w3.org/2000/svg"><circle cx="95" cy="95" fill="#fff" r="92.5"/><path d="m95 5a90 90 0 1 1 -90 90 90 90 0 0 1 90-90m0-5a95 95 0 1 0 95 95 95.11 95.11 0 0 0 -95-95z" fill="#b12028"/><g fill="none" stroke="#b12028" stroke-linecap="round" stroke-linejoin="round" stroke-width="3"><path d="m44.88 84.42v-26.75c0-7.47 4.72-7.67 7.67-7.67h95.19c4 0 8.46 1.15 8.46 9v59.2c0 5.5-5.31 10-11.41 10h-60.38"/><path d="m88.54 115.1h67.26"/><path d="m76.87 140h45.73"/><path d="m91.02 128.35v11.04"/><path d="m110.3 128.35v11.04"/><path d="m87.35 76.78h10.59v31.44h-10.59z"/><path d="m102.82 85.04h10.59v23.18h-10.59z"/><path d="m118.46 63.35h10.59v44.87h-10.59z"/><path d="m134.09 72.26h10.59v35.96h-10.59z"/><path d="m94.89 121.01h11.06"/><circle cx="57.55" cy="111.18" r="23.75"/><path d="m43.13 93.09 14.42 18.09 18.2-14.47"/><path d="m80.89 112.98-23.34-1.8 14.74 18.07"/><path d="m38.59 125.37 18.96-14.19"/></g></svg>