<svg viewBox="0 0 190 190" xmlns="http://www.w3.org/2000/svg"><circle cx="95" cy="95" fill="#fff" r="92.5"/><path d="m95 5a90 90 0 1 1 -90 90 90 90 0 0 1 90-90m0-5a95 95 0 1 0 95 95 95.11 95.11 0 0 0 -95-95z" fill="#b12028"/><g fill="none" stroke="#b12028" stroke-linecap="round" stroke-linejoin="round" stroke-width="3"><path d="m106.69 53.76h19.06v27.24"/><path d="m62.27 53.97h-18.18v92.03h81.66v-45.11"/><path d="m63 61.48v-13.21h9s.87-12.27 12.92-12.27 12.91 12.74 12.91 12.74h8.84v12.74z"/><circle cx="84.85" cy="48.74" r="5.49"/><path d="m58.17 75.74 5.88 6.35 6.12-9.64"/><path d="m76.28 77.98h31.88"/><path d="m58.17 91.15 5.88 6.35 6.12-9.64"/><path d="m76.28 93.39h23.76"/><path d="m58.17 106.56 5.88 6.35 6.12-9.64"/><path d="m76.28 108.79h11.88"/><path d="m144.19 62.41-53.85 55.83v8.63h9.7l53.87-54.42z"/><path d="m136.49 70.4 17.17 16.89-20.29 19.03"/><path d="m90.34 126.87-4.65 4.86"/></g></svg>