<svg viewBox="0 0 343.76 85.52" xmlns="http://www.w3.org/2000/svg"><path d="m48.88 26.85v6.52h26.08v20.65l-22.98 31.5h8.07l21.39-29.33h.04v-.05-29.29z" fill="#f4a400"/><path d="m152.94 79-15.28-25.31 12.27-20.32v-6.52h-32.6v6.52h24.98l-31.48 52.15h7.61l13.74-22.76 2.9-.72 14.18 23.48h10.45v-6.52z" fill="#f4a400"/><path d="m32.58 26.85v-6.52h-6.52v6.52h-19.55v6.52h19.55v9l-26.06 43.15h7.61l16.76-27.75 1.69-.42v21.65h-6.51v6.52h13v-48.9l3.25-3.25h3.3v-6.52z" fill="#f4a400"/><path d="m107.55 59.51-22.81 13.31v7.54l9.78-5.7v10.86h6.51v-11.44l3.26-5.13 3.26-1.9z" fill="#f4a400"/><path d="m218.38 26.85v6.52l32.59 3.26v-9.78z" fill="#f4a400"/><path d="m218.38 85.52h32.59v-6.52l-32.59-3.26z" fill="#f4a400"/><path d="m218.38 52.93h32.6v6.52h-32.6z" fill="#f4a400"/><path d="m172.74 26.85v58.67h19.56v-52.15h6.52v52.15h6.52v-58.67zm13 52.15h-6.52v-42.37l3.26-3.26h3.26z" fill="#f4a400"/><path d="m277.05 26.85v-6.52h-6.52v6.52h-6.52v6.52h6.52v52.15h6.52v-48.89l3.26-3.26h9.78v45.63h-6.52v6.52h13.04v-58.67z" fill="#f4a400"/><path d="m309.65 26.85v39.15h6.52v-3.29l3.26-3.26h16.29v19.55h-6.52v6.52h13v-58.67zm26.07 26.08h-19.55v-16.3l3.26-3.26h16.29z" fill="#f4a400"/><g fill="#595757"><path d="m17.92 1.06v12.19h-1.62v-1.06h-7.3v1.06h-1.56v-12.19zm-8.92 1.37v3.37h7.3v-3.37zm0 4.71v3.63h7.3v-3.63z"/><path d="m34.61 4.15a17.56 17.56 0 0 0 5.47 5.19l-1 1.3a18.65 18.65 0 0 1 -5-5.24v4.13h2.78v1.34h-2.76v2.64h-1.53v-2.64h-2.57v-1.34h2.6v-4.07a17.12 17.12 0 0 1 -4.89 5.54l-1-1.22a17 17 0 0 0 5.29-5.63h-4.89v-1.39h5.45v-2.44h1.55v2.44h5.53v1.39z"/><path d="m55.28 11.45q4-1 4-4.56a4.47 4.47 0 0 0 -.8-2.67 4.18 4.18 0 0 0 -2.75-1.62 26.87 26.87 0 0 1 -1.09 5.15 15.82 15.82 0 0 1 -1.18 2.65c-.68 1.18-1.45 1.78-2.31 1.78a2.24 2.24 0 0 1 -1.72-.87 4.43 4.43 0 0 1 -.78-1.31 6.3 6.3 0 0 1 -.39-2.23 6.35 6.35 0 0 1 1.06-3.56 6.32 6.32 0 0 1 2.8-2.41 6.77 6.77 0 0 1 2.76-.55 6.3 6.3 0 0 1 4 1.25 5.18 5.18 0 0 1 2 4.36c0 3.15-1.6 5.15-4.78 6zm-1-8.91a4.72 4.72 0 0 0 -2 .65 5.33 5.33 0 0 0 -1 .88 5.22 5.22 0 0 0 -1.41 3.61 4 4 0 0 0 .6 2.35c.24.35.48.52.72.52s.69-.36 1.1-1.08a18.73 18.73 0 0 0 1.97-6.93z"/><path d="m71.83 3.39v10.12h-1.35v-6.92c-.25.47-.54.94-.86 1.44l-.56-1.53a15.7 15.7 0 0 0 1.48-3.44c.24-.79.48-1.74.73-2.86l1.34.36c-.28 1.14-.54 2.08-.78 2.83zm7.32-.16.06-2.82h1.29l-.06 2.82h1.93a67.23 67.23 0 0 1 -.37 9 1.36 1.36 0 0 1 -.47.87 1.66 1.66 0 0 1 -1 .24 5.32 5.32 0 0 1 -1.09-.1l-.21-1.37a4.44 4.44 0 0 0 1 .12c.24 0 .39 0 .46-.16a3.21 3.21 0 0 0 .18-.88 59.27 59.27 0 0 0 .27-6v-.37h-.8a35.65 35.65 0 0 1 -.34 4.42 9.85 9.85 0 0 1 -2 4.49l-1.05-.86c.15-.18.28-.33.38-.47-1.53.31-3.19.55-5 .73l-.34-1.21c1-.06 1.95-.13 2.74-.21v-1h-2.4v-1h2.34v-.79h-2.17v-4.29h2.17v-.75h-2.48v-1.06h2.48v-.65c-.79.08-1.35.13-1.69.15l-.35-1a29.79 29.79 0 0 0 4.66-.66l.73 1c-.7.15-1.41.28-2.12.39v.8h2.43v.65zm-4.46 2.86v-.8h-1v.8zm0 1.69v-.86h-1v.86zm1.18-1.69h1.13v-.8h-1.13zm0 1.69h1.13v-.86h-1.13zm2.13-4.14h-2.1v.75h2.1zm1.06.94h-1v4.1h-2.16v.74h2.22v1h-2.22v.92c.84-.09 1.51-.17 2-.25a9 9 0 0 0 .89-2.86 30.06 30.06 0 0 0 .3-3.65z"/><path d="m91.25 2.19h4.11q-.23-.63-.48-1.5l1.5-.08c.17.6.35 1.13.51 1.58h4.72v1.31h-4.25c.26.64.55 1.29.88 2h4.29v1.27h-3.61c.48.82 1 1.56 1.43 2.22l-1.52.44a23.68 23.68 0 0 1 -1.58-2.66h-6.25v-1.31h5.61c-.26-.56-.53-1.21-.81-2h-4.55zm9 10.62c-.87.07-1.67.1-2.42.1a11.82 11.82 0 0 1 -4.25-.55 2.54 2.54 0 0 1 -1.78-2.42 2.16 2.16 0 0 1 .5-1.5l1.22.67a1.86 1.86 0 0 0 -.21.84c0 .57.39 1 1.16 1.24a11.2 11.2 0 0 0 3.18.34q1.06 0 2.52-.12z"/><path d="m111 3.32h3c.13-.7.28-1.57.45-2.6v-.2l1.55.23c-.15 1-.31 1.81-.48 2.57h.83a3.13 3.13 0 0 1 2.33.73 2.86 2.86 0 0 1 .63 2 18.53 18.53 0 0 1 -.5 4.38 4.94 4.94 0 0 1 -.69 1.7 1.67 1.67 0 0 1 -1.43.68 5.1 5.1 0 0 1 -2.4-.7l.17-1.43a5.18 5.18 0 0 0 2 .62.65.65 0 0 0 .58-.4 6.4 6.4 0 0 0 .41-1.26 15.24 15.24 0 0 0 .39-3.49c0-.64-.13-1.06-.39-1.25a2.14 2.14 0 0 0 -1.19-.24h-1a27.87 27.87 0 0 1 -3.09 8.19l-1.36-.74a25.4 25.4 0 0 0 3-7.45h-2.81zm11.29 6.68a21.52 21.52 0 0 0 -2.42-5.54l1.32-.6a23.38 23.38 0 0 1 2.56 5.49zm-1-6.5a11.62 11.62 0 0 0 -1.36-2.44l1-.39a13.5 13.5 0 0 1 1.38 2.41zm1.82-.58a11.79 11.79 0 0 0 -1.35-2.45l1-.33a9.09 9.09 0 0 1 1.36 2.31z"/><path d="m138.43 9.17q-1.26 3.69-2.82 3.69c-.74 0-1.37-.52-1.9-1.56a8.72 8.72 0 0 1 -.84-2.66 29.28 29.28 0 0 1 -.28-4.52q0-1.2.09-2.58l1.59.12c-.06.92-.09 1.79-.09 2.62q0 4.35.82 6.07c.22.47.42.7.62.7s.28-.14.47-.43a11.16 11.16 0 0 0 1.13-2.43zm4.29 1.62a31.74 31.74 0 0 0 -.85-4.63 28.27 28.27 0 0 0 -1.42-3.91l1.45-.35a22.28 22.28 0 0 1 1.66 4.27 30.35 30.35 0 0 1 .74 4.24z"/><path d="m153.44 2.22h3.66c.4-.64.7-1.16.91-1.55l1.51.22c-.13.24-.37.64-.72 1.19l-.08.14h4.78v1.34h-5.69a24.67 24.67 0 0 1 -1.69 2.11 4.62 4.62 0 0 1 2.34-.76 2.09 2.09 0 0 1 2.15 1.65q1.72-.58 3.54-1.14l.58 1.31-.24.07-.67.18c-1.26.34-2.28.63-3 .88.06.59.1 1.34.12 2.28l-1.49.08c0-.54 0-1.12 0-1.75v-.14c-2.08.71-3.12 1.43-3.12 2.14 0 .38.27.63.8.76a12.32 12.32 0 0 0 2.76.2 37.23 37.23 0 0 0 3.86-.21l.16 1.44c-1.3.1-2.65.15-4.06.15a12.18 12.18 0 0 1 -3.68-.39 1.77 1.77 0 0 1 -1.35-1.76 2.44 2.44 0 0 1 1-1.89 11.94 11.94 0 0 1 3.38-1.77 1.55 1.55 0 0 0 -.36-.73.89.89 0 0 0 -.66-.24 4 4 0 0 0 -1.69.51 13.27 13.27 0 0 0 -2.69 1.88l-.9-1a19.9 19.9 0 0 0 3.3-3.85h-2.76z"/><path d="m177.88 2.26a16.39 16.39 0 0 0 .58-2l1.69.23a17.89 17.89 0 0 1 -.72 1.74h5.94v9.77a1.51 1.51 0 0 1 -.33 1.12 2 2 0 0 1 -1.32.32 18.07 18.07 0 0 1 -2.29-.11l-.29-1.42a21.45 21.45 0 0 0 2.27.13c.23 0 .37 0 .42-.16a.67.67 0 0 0 .06-.32v-8h-8.8v9.92h-1.48v-11.22zm4.56 3v5h-4.53v1h-1.44v-6zm-1.44 1.19h-3.09v2.55h3.09z"/><path d="m200.9 4.19h4.9v1.39h-4.9v5.67h6.19v1.41h-13.19v-1.41h5.36v-10.93h1.64z"/><path d="m214.87 3h5.45c-.3-.78-.56-1.54-.81-2.31l1.49-.09a22.85 22.85 0 0 0 .84 2.4h5v1.39h-4.37a31 31 0 0 0 2.19 3.77l-1.42.68a26 26 0 0 1 -2.38-4.45h-6zm9.86 10c-.9.05-1.69.07-2.38.07a14.5 14.5 0 0 1 -4.16-.44 3 3 0 0 1 -2.41-3 2.89 2.89 0 0 1 .83-2.16l1.27.69a1.94 1.94 0 0 0 -.55 1.44 1.62 1.62 0 0 0 1.22 1.58 11.36 11.36 0 0 0 3.61.4c.71 0 1.51 0 2.41-.1z"/><path d="m244.05.76h1.51v3h2.49v1.34h-2.49v2.54a1.78 1.78 0 0 1 -.27 1.12 1.41 1.41 0 0 1 -1.17.41 6.45 6.45 0 0 1 -2.18-.38v-1.31a6.75 6.75 0 0 0 1.71.31c.26 0 .4-.16.4-.48v-2.21h-4.61v5.26a.88.88 0 0 0 .16.61 1.16 1.16 0 0 0 .74.26c.59.06 1.41.1 2.47.1 1.25 0 2.5-.06 3.76-.16v1.43c-1.35.08-2.69.12-4 .12a12 12 0 0 1 -3.72-.34 1.68 1.68 0 0 1 -.93-1.73v-5.55h-2.44v-1.36h2.44v-2.85h1.52v2.85h4.61z"/><path d="m257 1.07h7.6l.73 1.13q-3.53 2.14-6.11 3.92a8.53 8.53 0 0 1 3.35-.7 5.84 5.84 0 0 1 2.52.48 3.59 3.59 0 0 1 1.46 1.22 3.34 3.34 0 0 1 .5 1.88 3.36 3.36 0 0 1 -1 2.5 4.47 4.47 0 0 1 -1.79 1.06 10 10 0 0 1 -3.13.46 4.73 4.73 0 0 1 -2.89-.72 1.86 1.86 0 0 1 -.72-1.54 1.82 1.82 0 0 1 .53-1.3 2.77 2.77 0 0 1 2.16-.86 2.94 2.94 0 0 1 2.31 1 4.28 4.28 0 0 1 .91 1.89 2.53 2.53 0 0 0 2.07-2.49 2.15 2.15 0 0 0 -1.13-2 3.86 3.86 0 0 0 -1.93-.43 9.73 9.73 0 0 0 -3.15.48 10.87 10.87 0 0 0 -2.78 1.7l-1-1.15a53.16 53.16 0 0 1 4.29-3.3c1.11-.77 2.09-1.4 2.93-1.89h-5.73zm5.13 10.65q-.48-1.92-1.89-1.92a1.27 1.27 0 0 0 -1.12.5.8.8 0 0 0 -.17.48c0 .36.26.63.76.81a4.88 4.88 0 0 0 1.48.19 8.92 8.92 0 0 0 .9-.06z"/><path d="m277.69 3c1 .64 2.32 1.51 3.84 2.63l.26.19a23 23 0 0 0 2.56-5l1.48.7a33.55 33.55 0 0 1 -2.78 5.23 30.78 30.78 0 0 1 3.71 3.25l-1.07 1.23a34.87 34.87 0 0 0 -3.3-3l-.25-.2a21.87 21.87 0 0 1 -6 5.06l-1-1.34a19.32 19.32 0 0 0 5.76-4.75q-1.95-1.43-4-2.79z"/><path d="m294.14 5.27h12.15v1.39h-5a11.37 11.37 0 0 1 -.44 2.77 5.09 5.09 0 0 1 -1.74 2.57 8.28 8.28 0 0 1 -2 1.12l-1-1.21a5.55 5.55 0 0 0 2.89-2.24 6.85 6.85 0 0 0 .66-3h-5.54zm1.49-3.85h7.62v1.39h-7.62zm8.86 1.58a12.91 12.91 0 0 0 -1-2.42l1.07-.24a9.44 9.44 0 0 1 1 2.39zm1.75-.37a9.78 9.78 0 0 0 -1-2.44l1-.21a9.59 9.59 0 0 1 1 2.35z"/><path d="m319.19 13v-5.65a19.81 19.81 0 0 1 -3.83 1.88l-.75-1.23a17.11 17.11 0 0 0 4.39-2.19 17.57 17.57 0 0 0 3.27-3l1.18.74a19.64 19.64 0 0 1 -2.83 2.7v6.75z"/><path d="m332.26 1.71h10.62l.88.74a8.77 8.77 0 0 1 -1 2.36 6.87 6.87 0 0 1 -3.44 2.69l-.85-1.17a5.33 5.33 0 0 0 2.62-1.7 4.22 4.22 0 0 0 .91-1.53h-9.71zm4.34 2.93h1.56v1.16a11.13 11.13 0 0 1 -.59 4.06 5.92 5.92 0 0 1 -2.87 3l-1.12-1.18a5.32 5.32 0 0 0 2.15-1.68 4.23 4.23 0 0 0 .68-1.6 13.59 13.59 0 0 0 .19-2.58z"/></g></svg>