<svg viewBox="0 0 292.56 72.79" xmlns="http://www.w3.org/2000/svg"><path d="m41.6 22.85v5.55h22.19v17.57l-19.55 26.81h6.86l18.21-24.96h.03v-.04-24.93z" fill="#f4a400"/><path d="m130.16 67.24-13-21.55 10.44-17.29v-5.55h-27.74v5.55h21.26l-26.8 44.38h6.48l11.7-19.37 2.47-.61 12.06 19.98h8.89v-5.54z" fill="#f4a400"/><path d="m27.73 22.85v-5.55h-5.55v5.55h-16.64v5.55h16.64v7.6l-22.18 36.79h6.48l14.26-23.62 1.44-.36v18.43h-5.55v5.55h11.1v-41.62l2.77-2.77h2.78v-5.55z" fill="#f4a400"/><path d="m91.53 50.64-19.41 11.33v6.42l8.32-4.85v9.24h5.55v-9.73l2.77-4.36 2.77-1.62z" fill="#f4a400"/><path d="m185.85 22.85v5.55l27.74 2.77v-8.32z" fill="#f4a400"/><path d="m185.85 72.78h27.74v-5.54l-27.74-2.78z" fill="#f4a400"/><path d="m185.85 45.04h27.74v5.55h-27.74z" fill="#f4a400"/><path d="m147 22.85v49.94h16.64v-44.39h5.55v44.39h5.55v-49.94zm11.09 44.39h-5.55v-36.07l2.78-2.77h2.77z" fill="#f4a400"/><path d="m235.79 22.85v-5.55h-5.55v5.55h-5.55v5.55h5.55v44.38h5.55v-41.61l2.77-2.77h8.32v38.84h-5.54v5.54h11.09v-49.93z" fill="#f4a400"/><path d="m263.53 22.85v33.29h5.55v-2.77l2.77-2.78h13.87v16.65h-5.55v5.55h11.1v-49.94zm22.19 22.15h-16.64v-13.83l2.77-2.77h13.87z" fill="#f4a400"/><g fill="#595757"><path d="m15.25.9v10.37h-1.37v-.9h-6.19v.9h-1.36v-10.37zm-7.56 1.17v2.87h6.19v-2.87zm0 4v3.1h6.19v-3.09z"/><path d="m29.46 3.53a15 15 0 0 0 4.65 4.47l-.82 1.11a16.25 16.25 0 0 1 -4.29-4.52v3.52h2.37v1.14h-2.37v2.25h-1.3v-2.25h-2.19v-1.14h2.23v-3.46a14.53 14.53 0 0 1 -4.16 4.69l-.83-1a14.5 14.5 0 0 0 4.51-4.77h-4.18v-1.22h4.63v-2.08h1.29v2.08h4.71v1.18z"/><path d="m47 9.75q3.39-.86 3.39-3.89a3.81 3.81 0 0 0 -.68-2.27 3.51 3.51 0 0 0 -2.32-1.38 23 23 0 0 1 -.89 4.39 13.39 13.39 0 0 1 -1 2.25c-.58 1-1.24 1.51-2 1.51a1.87 1.87 0 0 1 -1.46-.74 3.71 3.71 0 0 1 -.66-1.14 5.21 5.21 0 0 1 -.34-1.9 5.37 5.37 0 0 1 .91-3 5.38 5.38 0 0 1 2.38-2.06 5.78 5.78 0 0 1 2.37-.52 5.37 5.37 0 0 1 3.38 1.06 4.41 4.41 0 0 1 1.71 3.74c0 2.69-1.35 4.39-4.07 5.1zm-.86-7.59a4.06 4.06 0 0 0 -1.71.55 4.84 4.84 0 0 0 -.87.75 4.46 4.46 0 0 0 -1.2 3.08 3.39 3.39 0 0 0 .51 2c.2.3.41.45.61.45s.59-.31.94-.92a15.82 15.82 0 0 0 1.76-5.91z"/><path d="m61.13 2.88v8.62h-1.13v-5.89c-.21.39-.46.8-.73 1.22l-.48-1.3a13.34 13.34 0 0 0 1.21-2.93c.2-.67.4-1.48.62-2.43l1.13.3c-.19.98-.41 1.78-.62 2.41zm6.23-.13v-2.4h1.1l-.05 2.4h1.65a58.28 58.28 0 0 1 -.32 7.68 1.23 1.23 0 0 1 -.4.75 1.46 1.46 0 0 1 -.84.2 5.49 5.49 0 0 1 -.94-.08l-.18-1.17a3.69 3.69 0 0 0 .84.1c.21 0 .34-.05.39-.14a2.19 2.19 0 0 0 .16-.75c.13-1.16.21-2.85.23-5.09v-.35h-.68a29.84 29.84 0 0 1 -.33 3.78 8.44 8.44 0 0 1 -1.73 3.82l-.89-.73c.13-.15.24-.29.32-.4a42.81 42.81 0 0 1 -4.19.63l-.28-1c.89-.05 1.66-.11 2.33-.18v-.92h-2v-.9h2v-.61h-1.84v-3.66h1.84v-.63h-2.12v-.9h2.12v-.56l-1.44.13-.3-.87a25.23 25.23 0 0 0 4-.54l.62.82q-.9.2-1.8.33v.69h2.07v.55zm-3.79 2.44v-.69h-.9v.69zm0 1.43v-.73h-.9v.73zm1-1.43h.93v-.69h-.93zm0 1.43h.93v-.73h-.93zm1.84-3.52h-1.81v.63h1.81zm.9.8h-.86v3.49h-1.85v.61h1.89v.9h-1.89v.78c.71-.08 1.28-.15 1.7-.22a7.37 7.37 0 0 0 .76-2.46 25.64 25.64 0 0 0 .25-3.1z"/><path d="m77.66 1.86h3.5c-.13-.35-.26-.78-.41-1.27l1.25-.07c.15.51.3 1 .44 1.34h4v1.14h-3.58c.22.54.47 1.1.75 1.66h3.65v1.1h-3.07a20 20 0 0 0 1.22 1.89l-1.3.35a20.37 20.37 0 0 1 -1.34-2.27h-5.31v-1.09h4.78c-.23-.47-.45-1-.69-1.66h-3.89zm7.69 9c-.74.06-1.42.09-2.06.09a10.12 10.12 0 0 1 -3.61-.47 2.17 2.17 0 0 1 -1.56-2.06 1.86 1.86 0 0 1 .44-1.28l1 .57a1.6 1.6 0 0 0 -.18.72c0 .49.33.83 1 1a9.42 9.42 0 0 0 2.7.29c.61 0 1.33 0 2.15-.1z"/><path d="m94.49 2.82h2.51c.12-.59.25-1.33.39-2.21v-.17l1.26.19c-.13.82-.26 1.55-.4 2.19h.75a2.68 2.68 0 0 1 2 .62 2.46 2.46 0 0 1 .54 1.75 15.82 15.82 0 0 1 -.42 3.72 4.19 4.19 0 0 1 -.59 1.45 1.43 1.43 0 0 1 -1.22.58 4.35 4.35 0 0 1 -2-.6l.14-1.22a4.38 4.38 0 0 0 1.71.53.55.55 0 0 0 .49-.34 5.57 5.57 0 0 0 .35-1.07 13 13 0 0 0 .33-3c0-.55-.11-.9-.33-1.06a1.79 1.79 0 0 0 -1-.18h-.89a23.73 23.73 0 0 1 -2.63 7l-1.16-.63a21.64 21.64 0 0 0 2.48-6.37h-2.31zm9.59 5.7a18.41 18.41 0 0 0 -2.08-4.72l1.12-.51a19.82 19.82 0 0 1 2.2 4.71zm-.86-5.52a10.09 10.09 0 0 0 -1.15-2.09l.93-.33a11.69 11.69 0 0 1 1.18 2.05zm1.56-.5a10.37 10.37 0 0 0 -1.15-2.1l.85-.28a7.82 7.82 0 0 1 1.16 2z"/><path d="m117.81 7.81c-.71 2.09-1.51 3.19-2.39 3.19-.64 0-1.18-.45-1.63-1.33a7.86 7.86 0 0 1 -.71-2.26 25.3 25.3 0 0 1 -.24-3.86c0-.68 0-1.41.08-2.19l1.35.1c0 .78-.07 1.53-.07 2.23a13.35 13.35 0 0 0 .69 5.16c.19.4.37.6.53.6s.24-.12.4-.36a9.2 9.2 0 0 0 1-2.07zm3.65 1.37a25.44 25.44 0 0 0 -.72-3.94 23.75 23.75 0 0 0 -1.21-3.32l1.23-.3a18.47 18.47 0 0 1 1.42 3.63 26.65 26.65 0 0 1 .63 3.61z"/><path d="m130.59 1.89h3.11q.51-.81.78-1.32l1.28.19c-.11.2-.32.54-.61 1l-.07.12h4.07v1.12h-4.84a21.76 21.76 0 0 1 -1.44 1.8 3.88 3.88 0 0 1 2-.65 1.77 1.77 0 0 1 1.83 1.4c1-.33 2-.65 3-1l.5 1.12-.21.06-.57.15c-1.07.29-1.94.54-2.58.75 0 .5.08 1.14.1 1.94l-1.27.07c0-.46 0-1 0-1.49v-.06c-1.79.61-2.67 1.21-2.67 1.82 0 .32.23.54.69.65a11 11 0 0 0 2.35.17 31.46 31.46 0 0 0 3.28-.18l.14 1.23q-1.66.12-3.45.12a10.45 10.45 0 0 1 -3.14-.33 1.52 1.52 0 0 1 -1.15-1.49 2.08 2.08 0 0 1 .82-1.61 10.06 10.06 0 0 1 3-1.49 1.32 1.32 0 0 0 -.3-.63.82.82 0 0 0 -.57-.2 3.35 3.35 0 0 0 -1.43.44 10.87 10.87 0 0 0 -2.3 1.59l-.76-.87a17.52 17.52 0 0 0 2.76-3.31h-2.35z"/><path d="m151.39 1.93a15.27 15.27 0 0 0 .49-1.68l1.44.19a16 16 0 0 1 -.61 1.49h5v8.28a1.28 1.28 0 0 1 -.28.95 1.67 1.67 0 0 1 -1.12.27 13.38 13.38 0 0 1 -2-.1l-.25-1.2c.71.07 1.36.11 1.94.11.19 0 .31 0 .35-.14a.62.62 0 0 0 .05-.27v-6.78h-7.4v8.45h-1.27v-9.57zm3.88 2.52v4.28h-3.85v.85h-1.23v-5.13zm-1.23 1h-2.62v2.21h2.58z"/><path d="m171 3.57h4.17v1.18h-4.17v4.82h5.27v1.21h-11.27v-1.21h4.56v-9.3h1.44z"/><path d="m182.87 2.55h4.64c-.25-.66-.48-1.31-.69-2l1.26-.08a20.69 20.69 0 0 0 .72 2h4.27v1.26h-3.72a25.58 25.58 0 0 0 1.86 3.27l-1.21.52a21.79 21.79 0 0 1 -2-3.79h-5.1zm8.39 8.51c-.76 0-1.44.06-2 .06a12.27 12.27 0 0 1 -3.54-.37 2.55 2.55 0 0 1 -2.05-2.53 2.49 2.49 0 0 1 .71-1.84l1.08.59a1.66 1.66 0 0 0 -.46 1.22 1.37 1.37 0 0 0 1 1.35 9.63 9.63 0 0 0 3.07.34c.61 0 1.29 0 2.05-.08z"/><path d="m207.7.65h1.3v2.53h2.12v1.16h-2.12v2.16a1.52 1.52 0 0 1 -.23 1 1.19 1.19 0 0 1 -1 .35 5.3 5.3 0 0 1 -1.85-.32v-1.16a6.09 6.09 0 0 0 1.45.26c.23 0 .34-.14.34-.41v-1.88h-3.92v4.48a.84.84 0 0 0 .13.52 1.05 1.05 0 0 0 .63.22c.5 0 1.2.08 2.11.08 1.06 0 2.13 0 3.2-.14v1.22c-1.15.07-2.29.1-3.41.1a10.46 10.46 0 0 1 -3.16-.28 1.44 1.44 0 0 1 -.8-1.48v-4.72h-2.07v-1.16h2.07v-2.42h1.3v2.42h3.92z"/><path d="m218.69.91h6.47l.62 1c-2 1.22-3.74 2.33-5.2 3.33a7.39 7.39 0 0 1 2.85-.59 5.06 5.06 0 0 1 2.15.41 3 3 0 0 1 1.24 1 2.89 2.89 0 0 1 .46 1.6 2.87 2.87 0 0 1 -.87 2.13 3.87 3.87 0 0 1 -1.52.9 8.7 8.7 0 0 1 -2.67.39 4 4 0 0 1 -2.46-.61 1.66 1.66 0 0 1 -.16-2.42 2.38 2.38 0 0 1 1.84-.73 2.52 2.52 0 0 1 2 .82 3.73 3.73 0 0 1 .77 1.61 2.15 2.15 0 0 0 1.79-2.09 1.83 1.83 0 0 0 -1-1.66 3.21 3.21 0 0 0 -1.64-.37 8.27 8.27 0 0 0 -2.67.41 9.05 9.05 0 0 0 -2.37 1.45l-.82-1a43.88 43.88 0 0 1 3.65-2.81c1-.66 1.78-1.19 2.5-1.61h-4.95zm4.37 9.09c-.27-1.09-.81-1.64-1.61-1.64a1.1 1.1 0 0 0 -1 .42.72.72 0 0 0 -.14.41c0 .31.22.54.65.69a3.87 3.87 0 0 0 1.25.16c.26-.04.53-.04.85-.04z"/><path d="m236.34 2.54c.88.54 2 1.29 3.26 2.23l.22.17a19.75 19.75 0 0 0 2.18-4.23l1.26.59a27.42 27.42 0 0 1 -2.37 4.45 25.84 25.84 0 0 1 3.16 2.75l-.91 1.05a30 30 0 0 0 -2.81-2.55l-.21-.17a19 19 0 0 1 -5.1 4.31l-.84-1.14a16.43 16.43 0 0 0 4.89-4c-1.11-.81-2.26-1.6-3.45-2.38z"/><path d="m250.33 4.49h10.34v1.18h-4.27a10.07 10.07 0 0 1 -.4 2.33 4.37 4.37 0 0 1 -1.47 2.16 7.36 7.36 0 0 1 -1.73 1l-.83-1a4.69 4.69 0 0 0 2.48-1.88 5.87 5.87 0 0 0 .57-2.56h-4.72zm1.27-3.28h6.48v1.18h-6.48zm7.54 1.36a10.24 10.24 0 0 0 -.84-2.06l.91-.2a7.61 7.61 0 0 1 .83 2zm1.49-.31a7.81 7.81 0 0 0 -.85-2.08l.88-.18a8 8 0 0 1 .89 2z"/><path d="m271.65 11.06v-4.81a16.78 16.78 0 0 1 -3.26 1.61l-.64-1.07a14.82 14.82 0 0 0 3.74-1.79 15.78 15.78 0 0 0 2.79-2.53l1 .63a17.08 17.08 0 0 1 -2.41 2.3v5.71z"/><path d="m282.77 1.45h9l.75.63a7.44 7.44 0 0 1 -.84 2 5.84 5.84 0 0 1 -2.92 2.28l-.73-1a4.55 4.55 0 0 0 2.23-1.45 3.72 3.72 0 0 0 .74-1.3h-8.27zm3.7 2.5h1.32v1a9.49 9.49 0 0 1 -.49 3.45 5 5 0 0 1 -2.45 2.51l-1-1a4.56 4.56 0 0 0 1.83-1.42 3.64 3.64 0 0 0 .58-1.35 11.72 11.72 0 0 0 .16-2.2z"/></g></svg>