<svg viewBox="0 0 148.33 124.11" xmlns="http://www.w3.org/2000/svg"><g fill="#00bcb5"><path d="m6.1 10.29a43.15 43.15 0 0 1 -.84 8.1 22.45 22.45 0 0 0 3.39-5.1 23.45 23.45 0 0 0 1-2.67c3.15 1.08 3.66 1.32 3.66 1.74s-.27.57-1.41.75c-.3.42-.63.84-.93 1.2h4.95a15.26 15.26 0 0 0 .66-1.62 9.27 9.27 0 0 0 .42-2c2.88.81 3.66 1.14 3.66 1.56s-.3.48-1.44.51a8.3 8.3 0 0 1 -2 1.56h4.5c1.53-1.62 1.77-1.8 2-1.8s.57.18 1.89 1.23c.63.51.81.72.81 1s-.12.3-.45.3h-7.66v2.94h3.09c1.14-1.23 1.5-1.47 1.71-1.47s.63.24 1.74 1c.51.39.75.63.75.84s-.09.3-.39.3h-6.9v3h3.21c1.17-1.26 1.53-1.5 1.74-1.5s.63.24 1.74 1.08c.48.36.72.6.72.81s-.09.3-.39.3h-7v3.18h3.81c1.44-1.44 1.8-1.68 2-1.68s.63.24 2 1.2c.6.42.84.66.84.87s-.09.3-.39.3h-16.11v.42c0 .87-.45 1.17-1.68 1.17-.78 0-1.08-.24-1.08-.87 0-.81.12-1.65.12-5 0-1.5 0-3 .06-4.59a24.09 24.09 0 0 1 -2.58 1.65c-.09 0-.12 0-.18 0a16.41 16.41 0 0 1 -4.89 8.36c-.12.09-.3-.15-.24-.27a24.18 24.18 0 0 0 2.67-8.61 79.75 79.75 0 0 0 .51-10.38 40.4 40.4 0 0 0 -.19-4.38 29.33 29.33 0 0 1 3.58 1.65h15.42c1.11-1.23 1.35-1.37 1.59-1.37s.57.18 1.65 1c.48.36.66.57.66.81s-.18.57-.84.9v1c0 1 .12 1.92.12 2.37 0 .81-.6 1.26-1.74 1.26-.87 0-1.14-.21-1.14-1v-.09zm16.2-8.29c1.59-1.74 1.95-2 2.16-2s.63.24 2.19 1.38c.72.54 1 .78 1 1s-.09.3-.39.3h-23.65a18 18 0 0 0 -2.34.18l-.33-1.12a14.75 14.75 0 0 0 2.61.26zm0 4.08h-16.17v1.24 2.28h16.17zm-6.6 11.86v-2.94h-5.22v2.94zm-5.22 3.66h5.22v-3h-5.22zm0 3.87h5.22v-3.18h-5.22z"/><path d="m36.19 16.41a26.07 26.07 0 0 1 -.51 3.12 13.75 13.75 0 0 1 -4.8 8c-.12.09-.36-.12-.3-.24a20.26 20.26 0 0 0 2.58-7.83 84.77 84.77 0 0 0 .48-10.86c0-3.66-.09-5.73-.21-7.59a14.29 14.29 0 0 1 3.39 1.68h15.87c1.23-1.23 1.47-1.41 1.71-1.41s.54.18 1.65 1.05c.51.45.69.66.69.9s-.09.36-.81.87v3.3c0 13.83.12 14.91.12 16.8 0 1.53-.36 1.92-1.08 2.46a4.34 4.34 0 0 1 -2.31.72c-.51 0-.6-.27-.69-.81-.24-1.35-1.11-1.65-3.39-2.25-.15 0-.15-.36 0-.36 1.41.12 2.61.15 3.9.15.42 0 .51-.12.51-.51v-7.19h-6.99c0 3.84.06 7.44.06 9 0 .9-.51 1.23-1.74 1.23-1 0-1.32-.33-1.32-1.2 0-.42.09-1.77.09-4.44v-4.59zm.36-6.72c0 2-.12 4-.3 6h6.87v-6zm6.57-.69v-5.64h-6.54v1.41 4.23zm9.88-5.64h-7v5.64h7zm0 6.33h-7v6h7z"/><path d="m74.62 8.46a12.22 12.22 0 0 1 -.62 3.18 21.54 21.54 0 0 1 -1.93 4.36 24.66 24.66 0 0 1 -3.33 5 3.3 3.3 0 0 1 -2.49 1.23 3 3 0 0 1 -2.25-1.23c-1.08-1.2-1.65-2.73-1.65-5.46a9.37 9.37 0 0 1 1.26-4.54 11.6 11.6 0 0 1 4-4.2 13.44 13.44 0 0 1 7.26-1.95 11.48 11.48 0 0 1 7.49 2.35 9.2 9.2 0 0 1 3.51 7.62 8.15 8.15 0 0 1 -2.76 6.18 13.09 13.09 0 0 1 -4.44 2.67 21.35 21.35 0 0 1 -6.15 1.14c-.45 0-.66-.06-.66-.3s.18-.3.57-.39a14.89 14.89 0 0 0 7.71-3.93 8.92 8.92 0 0 0 2.7-7 6.56 6.56 0 0 0 -2.64-5.6 9.46 9.46 0 0 0 -4.8-1.59 13.45 13.45 0 0 0 -1.89 0 4.12 4.12 0 0 1 1.11 2.46zm-7.29.12a9.13 9.13 0 0 0 -2.55 3.69 7.81 7.81 0 0 0 -.51 2.85 6 6 0 0 0 .73 3.24 1.93 1.93 0 0 0 1.32 1c.48 0 .93-.3 2.07-1.92a36.43 36.43 0 0 0 4-7.35 7 7 0 0 0 .63-2.55 1.51 1.51 0 0 0 -.54-1.35 10.1 10.1 0 0 0 -5.15 2.39z"/><path d="m93.91 20.85a14.29 14.29 0 0 1 -4.23 5.46c-.12.09-.39-.09-.3-.21a20.44 20.44 0 0 0 2.82-7.41 36.71 36.71 0 0 0 .45-6.48c0-1.11 0-1.8-.09-3.69a24.91 24.91 0 0 1 2.85 1.32h6.78c.81-1 1-1.17 1.29-1.17s.54.18 1.56 1c.45.39.63.6.63.84s-.18.39-.69.78v1.61c0 1.59.06 2.58.06 4.08 0 .81-.54 1.11-1.5 1.11-.75 0-1.14-.27-1.14-.87v-.3h-7.5a18.38 18.38 0 0 1 -.39 2c.81.36 1.14.51 2.13 1h5.82c.87-1 1.11-1.2 1.35-1.2s.57.18 1.56 1c.45.36.63.57.63.81s-.12.33-.69.78v.81c0 2.16.09 3.63.09 4.11 0 .66-.54 1-1.56 1-.81 0-1.14-.24-1.14-.84v-.54h-6.24v.9c0 .66-.51 1-1.5 1-.72 0-1.14-.27-1.14-.75 0-.75.09-1.53.09-4.65zm1.35-14.1a20.5 20.5 0 0 1 -5.55 3c-.15.06-.33-.21-.21-.3a24.29 24.29 0 0 0 6.12-6 16.31 16.31 0 0 0 1.77-3.36c3 1.14 3.39 1.32 3.39 1.71s-.33.48-1.2.48l-.12.15c4.59 1 6.57 2.19 6.57 3.81a1.17 1.17 0 0 1 -1 1.29c-.45 0-.81-.24-1.35-.93a14.09 14.09 0 0 0 -4.5-3.72 21.81 21.81 0 0 1 -3.81 3.81 5.76 5.76 0 0 0 1.47.21h2.7c.81-1.11 1.17-1.35 1.38-1.35s.6.24 1.56 1c.42.33.66.57.66.78s-.09.3-.39.3h-5.96a5.07 5.07 0 0 0 -1.23.18zm-.06 6.9c0 .87-.12 1.71-.21 2.58h7.41v-2.58zm7.2-3.12h-7.14v2.43h7.17zm.3 10.11h-6.24v4.5h6.24zm7.56-13.53c0 6.48.15 11 .15 12.42 0 .84-.51 1.23-1.56 1.23-.87 0-1.2-.33-1.2-1.08s.12-3.48.12-8.76c0-4.68 0-5.61-.12-7.92 3 .3 3.51.42 3.51.9 0 .27-.21.48-.9.75zm2.88-3.78a14.45 14.45 0 0 0 -.14-2.52c3.54.45 3.6.48 3.6.93s-.21.57-.78.84v11c0 5.46.15 9.51.15 10.89s-.24 1.86-1 2.37a4 4 0 0 1 -2.19.72c-.69 0-.9-.15-1-.75-.15-1.14-.66-1.5-3.06-2.25-.15 0-.15-.42 0-.42 1.32.12 2.76.21 3.93.21.39 0 .48-.09.48-.42z"/><path d="m127 21.39a4.16 4.16 0 0 0 2.85 2.46 24.88 24.88 0 0 0 6.84.69 99.87 99.87 0 0 0 11.49-.72c.15 0 .15.27 0 .33a1.89 1.89 0 0 0 -1.17 1.68c-.09.93-.21 1.08-1.26 1.17s-4.62.12-6.78.12c-4.95 0-7.92-.39-9.87-1.59a7.32 7.32 0 0 1 -3-4.32 23.56 23.56 0 0 1 -3.45 4.53c.06 1.11-.06 1.35-.51 1.35s-1.02-1.09-2.14-3.66a13.29 13.29 0 0 0 2.28-.84 11.89 11.89 0 0 0 1.95-1.11v-8h-2.19a5.05 5.05 0 0 0 -1.62.27l-.33-1.2a8.19 8.19 0 0 0 2 .24h2c1-1.23 1.29-1.41 1.53-1.41s.54.18 1.65 1.11c.51.42.69.63.69.87s-.09.3-.9 1zm-1.71-14.58c-.69 0-1.05-.36-1.47-1.86a8.79 8.79 0 0 0 -1.92-3.51c-.12-.12.09-.3.24-.27 3.51.87 4.8 2.31 4.8 3.84a1.63 1.63 0 0 1 -1.65 1.8zm13.71 4.05h4.29c1.32-1.62 1.71-1.86 1.89-1.86s.6.24 1.95 1.29c.6.51.84.75.84 1s-.09.3-.39.3h-17.43a9.76 9.76 0 0 0 -1.71.18l-.33-1.11a9.08 9.08 0 0 0 2 .24h6.12v-4.78h-4.05a17.58 17.58 0 0 1 -3.63 3.45c-.12.09-.36-.09-.27-.21a21.66 21.66 0 0 0 2.79-5.82 24.25 24.25 0 0 0 .7-2.64c2.61.66 3.57 1 3.57 1.41s-.39.57-1.2.6a26.22 26.22 0 0 1 -1.41 2.52h3.54v-1.89a22.62 22.62 0 0 0 -.21-3.24c3.54.3 3.84.6 3.84.87s-.27.54-.87.81v3.45h3.09c1.17-1.44 1.53-1.68 1.74-1.68s.6.24 1.8 1.2c.51.39.75.66.75.87s-.09.3-.39.3h-7zm-5.61 10.5v.64c0 .69-.57 1-1.62 1s-1.23-.18-1.23-.84.12-1.65.12-5c0-1.32 0-2.64-.09-4 1.44.63 1.65.78 3.06 1.5h8.1c1-1 1.23-1.2 1.47-1.2s.54.18 1.56 1c.45.36.63.57.63.81s-.21.42-.72.81v1c0 2.46.12 4.17.12 4.74 0 .75-.57 1.08-1.77 1.08-.75 0-1.08-.21-1.08-.72v-.69zm8.61-6.06h-8.55v5.37h8.55z"/><path d="m3 75.39c-.15.06-.33-.24-.21-.33 8.21-5.82 11.31-12.21 11.31-23.19a19.43 19.43 0 0 0 -.1-2.52c3.93.36 4.35.45 4.35 1 0 .3-.15.42-1.05.84 0 .93-.06 1.83-.12 2.76a23.53 23.53 0 0 0 3.45 10.29 19.94 19.94 0 0 0 9.78 7.86c.15.06.15.33 0 .36a2.72 2.72 0 0 0 -2 2.16c-.18.51-.3.63-.57.63a4 4 0 0 1 -1.56-.87 24.05 24.05 0 0 1 -7.44-9.66 29.63 29.63 0 0 1 -1.86-8c-1.14 9.52-5.13 14.62-13.98 18.67z"/><path d="m49.65 59.25a2.92 2.92 0 0 0 .18-.45c0-.09-.06-.12-.18-.12-1.83.21-3.51.48-4.32.66a6.38 6.38 0 0 1 -1.38.15 3.09 3.09 0 0 1 -1.44-.49 38.85 38.85 0 0 1 -4 4.86 22.62 22.62 0 0 1 -4.41 3.48.43.43 0 0 1 -.3.09.25.25 0 0 1 -.27-.27c0-.12 0-.15.24-.33a29.45 29.45 0 0 0 3.69-4.26 57.43 57.43 0 0 0 4.5-7.41 12.21 12.21 0 0 0 .63-1.62 2.92 2.92 0 0 0 .15-.84.64.64 0 0 0 -.3-.54 3.08 3.08 0 0 0 -.81-.3c-.27-.06-.42-.09-.42-.24s.21-.45.51-.63a1.9 1.9 0 0 1 1-.24 4.11 4.11 0 0 1 2.1.72c1.05.78 1.53 1.41 1.53 1.89a1.08 1.08 0 0 1 -.63 1 2.53 2.53 0 0 0 -.87 1.05c-.48.84-.84 1.44-1.44 2.31h.45a43.56 43.56 0 0 0 5.58-.72 1.44 1.44 0 0 0 .81-.3 1.75 1.75 0 0 1 .9-.45 1.91 1.91 0 0 1 1.14.42c1 .69 1.47 1.2 1.47 1.71s-.24.75-.81 1a2.43 2.43 0 0 0 -.72.63 34 34 0 0 1 -6 6.66c2.16 1.35 3.36 2.61 3.36 3.93a1.34 1.34 0 0 1 -1.26 1.5c-.78 0-1.14-.36-1.59-1.11a19.16 19.16 0 0 0 -6.33-6.15c-.15-.12-.15-.18-.15-.27s.06-.18.27-.18a1.75 1.75 0 0 1 .54.12 23 23 0 0 1 4.38 1.71 35.94 35.94 0 0 0 4.2-6.97z"/><path d="m72.45 56.46a12.22 12.22 0 0 1 -.66 3.18 21.54 21.54 0 0 1 -1.89 4.36 24.66 24.66 0 0 1 -3.33 5 3.3 3.3 0 0 1 -2.49 1.23 3 3 0 0 1 -2.28-1.23c-1.08-1.2-1.65-2.73-1.65-5.46a9.37 9.37 0 0 1 1.29-4.54 11.6 11.6 0 0 1 4-4.2 13.44 13.44 0 0 1 7.26-2 11.48 11.48 0 0 1 7.44 2.34 9.2 9.2 0 0 1 3.51 7.62 8.15 8.15 0 0 1 -2.71 6.24 13.09 13.09 0 0 1 -4.44 2.67 21.35 21.35 0 0 1 -6.15 1.14c-.45 0-.66-.06-.66-.3s.18-.3.57-.39a14.89 14.89 0 0 0 7.74-3.93 8.92 8.92 0 0 0 2.7-7 6.56 6.56 0 0 0 -2.7-5.6 9.46 9.46 0 0 0 -4.77-1.59 13.45 13.45 0 0 0 -1.89 0 4.12 4.12 0 0 1 1.11 2.46zm-7.29.12a9.13 9.13 0 0 0 -2.55 3.69 7.81 7.81 0 0 0 -.51 2.85 6 6 0 0 0 .75 3.24 1.93 1.93 0 0 0 1.32 1c.48 0 .93-.3 2.07-1.92a36.43 36.43 0 0 0 4-7.35 7 7 0 0 0 .63-2.55 1.51 1.51 0 0 0 -.54-1.35 10.1 10.1 0 0 0 -5.17 2.39z"/><path d="m102.36 54.45c0-.45 0-.9-.06-1.38a31.6 31.6 0 0 0 -.3-4.35c3.69.48 3.84.51 3.84 1 0 .27-.27.51-.9.69 0 1.47 0 2.82.09 4.08h5c1.59-1.8 1.83-2 2.07-2s.51.18 1.74 1.35c.54.54.72.78.72 1s-.12.3-.45.3h-9a34.45 34.45 0 0 0 1.65 9.51c.33-.6.6-1.2.87-1.8a20.36 20.36 0 0 0 1.44-5c2.55.75 3.42 1.17 3.42 1.65 0 .3-.21.42-1 .66a27.39 27.39 0 0 1 -3.48 7 13.73 13.73 0 0 0 2.49 3.12c.78.69 1.29 1.08 1.53 1.08.42 0 .84-.69 2-3.18.06-.15.3-.06.3.09-.24 2.82-.27 3.36-.27 3.75a1.6 1.6 0 0 0 .42 1.2 1.67 1.67 0 0 1 .3 1 1.21 1.21 0 0 1 -1.29 1.32 6.7 6.7 0 0 1 -3.63-1.77 18.43 18.43 0 0 1 -3.75-4.32 22.75 22.75 0 0 1 -9.12 5.7c-.15.06-.3-.21-.18-.3a28.83 28.83 0 0 0 8.16-7.44c-1.5-3.21-2.16-6.54-2.49-12.33h-9.27c0 2 0 3.36-.12 5.1h4.41c1-1.23 1.23-1.41 1.47-1.41s.54.18 1.68 1.2c.51.48.69.69.69.93s-.09.3-1 .9c-.3 4.77-.45 6.06-.93 7.59a2.86 2.86 0 0 1 -1.29 1.68 4.43 4.43 0 0 1 -2.22.48c-.39 0-.45-.12-.6-.81-.33-1.11-.51-1.26-2.46-2-.15-.06 0-.39.12-.36a15.32 15.32 0 0 0 2.55.33c1.2 0 1.35-.18 1.68-1.86a38.67 38.67 0 0 0 .51-6h-4.64a34.37 34.37 0 0 1 -1.06 8.15 14.29 14.29 0 0 1 -4.11 6.45c-.12.09-.36-.15-.3-.27a23.46 23.46 0 0 0 2.22-6.93 58.81 58.81 0 0 0 .57-9.48c0-2.34-.06-4-.18-6.12 1.65.81 1.89.93 3.42 1.77zm7.14-.9c-.39 0-.48-.09-.78-.57a7.48 7.48 0 0 0 -2.49-3.06c-.12-.09-.09-.33.06-.33 3.06.24 4.47 1.2 4.47 2.52a1.3 1.3 0 0 1 -1.26 1.44z"/><path d="m140.37 62.52c1.5-1.92 1.86-2.16 2.07-2.16s.57.24 2 1.5c.63.57.87.84.87 1s-.09.3-.39.3h-14.42a14.87 14.87 0 0 0 3.84 4.89 21.77 21.77 0 0 0 2.52-2.55 19.84 19.84 0 0 0 1.32-1.95c2.37 1.26 3.12 1.8 3.12 2.16s-.27.48-1.29.45a24.67 24.67 0 0 1 -5.07 2.37 10.56 10.56 0 0 0 1.35.9 24.36 24.36 0 0 0 9.39 3.09c.15 0 .12.36 0 .39a2.36 2.36 0 0 0 -2.1 1.89c-.18.54-.36.72-.72.72a4.35 4.35 0 0 1 -1.41-.36 20.62 20.62 0 0 1 -6.54-3.75c-2.22-1.89-3.63-4.23-5.07-8.25h-3.42v8.28a50.62 50.62 0 0 0 6.06-1.44c.15-.06.24.36.12.42a47.88 47.88 0 0 1 -11.46 4.58c-.09.81-.33 1.14-.75 1.14s-.42 0-1.53-3.75c.87 0 1.83-.12 2.88-.24.6-.06 1.2-.15 1.83-.24v-8.7h-2.52a21.55 21.55 0 0 0 -2.58.18l-.33-1.11a17.33 17.33 0 0 0 2.85.24h2.58v-6.78c0-2.25 0-4.53-.24-6.81a14.49 14.49 0 0 1 3.48 1.68h10.74c1.29-1.56 1.53-1.74 1.77-1.74s.57.18 2 1.2c.66.48.84.69.84.93s-.12.3-.45.3h-15.32v3.27h9.45c1.35-1.53 1.71-1.77 1.92-1.77s.6.24 1.8 1.23c.54.45.78.72.78.93s-.09.3-.39.3h-13.56v3.24h9.51c1.35-1.53 1.71-1.77 1.92-1.77s.6.24 1.8 1.23c.54.45.78.72.78.93s-.09.3-.39.3h-13.62v3.33z"/><path d="m18.87 112a23.08 23.08 0 0 1 -4.56 2.52c-.15.06-.39-.27-.27-.36a26.61 26.61 0 0 0 8.82-10.83h-5.86a7.74 7.74 0 0 0 -1.89.24l-.33-1.2a10.8 10.8 0 0 0 2.22.24h1.77v-3.7a17.32 17.32 0 0 0 -.18-2.61c3.48.36 3.87.69 3.87 1s-.33.54-1 .84v4.41h1.29c.9-1 1.14-1.17 1.38-1.17s.51.18 1.53 1.23c.45.48.63.72.63 1s-.21.48-1 .75a20.49 20.49 0 0 1 -3.78 5.28c3.21.81 4.89 2 4.89 3.63a1.5 1.5 0 0 1 -1.47 1.5c-.69 0-1-.3-1.35-1.26a7.82 7.82 0 0 0 -2.1-3.27v3.42c0 4.62.12 8.1.12 9s-.48 1.26-1.89 1.26c-.81 0-1.11-.33-1.11-1.14 0-.48.15-2.22.15-6.6zm15.21 9.57h3c1.62-2.07 2-2.31 2.19-2.31s.57.24 2.13 1.59c.72.63 1 .9 1 1.11s-.09.3-.39.3h-15.85a20.2 20.2 0 0 0 -2.49.18l-.33-1.11a15.38 15.38 0 0 0 2.67.24h5.1v-13.48h-3.45a13.4 13.4 0 0 0 -2 .18l-.33-1.11a10.8 10.8 0 0 0 2.22.24h3.57v-6.54a38.2 38.2 0 0 0 -.18-4.26c3.87.36 4.23.66 4.23 1s-.36.6-1.08.9v8.88h2.67c1.56-1.83 1.92-2.07 2.13-2.07s.57.24 2 1.44c.6.54.84.81.84 1s-.09.3-.39.3h-7.26z"/><path d="m45.09 110.7c-.15.06-.33-.24-.21-.33a31 31 0 0 0 9.6-9.75 23.11 23.11 0 0 0 2.1-4.56c4.23 1.14 4.26 1.17 4.26 1.53s-.24.42-1.32.72a21.74 21.74 0 0 0 6.87 6.36 22 22 0 0 0 7 2.43c.15 0 .15.39 0 .39-1 .09-1.62.84-2.07 2.46-.12.42-.27.57-.51.57a4.42 4.42 0 0 1 -1.41-.6 26.76 26.76 0 0 1 -4.26-3 25.65 25.65 0 0 1 -6.06-8c-2.83 5.27-7.42 9.08-13.99 11.78zm13 2.73a34.64 34.64 0 0 1 -4.74 6.66c3.75 0 7.5-.18 11.25-.39a12.4 12.4 0 0 0 -2.94-3.87c-.12-.09 0-.36.18-.3 4.32 1.59 6.87 3.81 6.87 5.88a1.86 1.86 0 0 1 -1.65 2c-.87 0-1-.21-1.8-2.16-.12-.3-.21-.57-.33-.84a105.18 105.18 0 0 1 -15.4 2.59c-.21.9-.36 1.14-.72 1.14s-.48 0-1.59-4.17a35.48 35.48 0 0 0 3.87.15h1.11a34.65 34.65 0 0 0 2-6.66h-5.27a14.5 14.5 0 0 0 -2.1.18l-.33-1.11a12.73 12.73 0 0 0 2.43.24h17.76c1.44-1.8 1.8-2 2-2s.6.24 2 1.41c.66.54.9.81.9 1s-.09.3-.39.3zm2.07-5.79c1.32-1.65 1.68-1.89 1.89-1.89s.57.24 1.86 1.32c.57.48.81.75.81 1s-.09.3-.39.3h-10.33a10.38 10.38 0 0 0 -1.77.18l-.33-1.11a10.08 10.08 0 0 0 2.16.24z"/><path d="m86 120.9a20.81 20.81 0 0 1 -10 2.82c-.15 0-.21-.3-.06-.36a22.12 22.12 0 0 0 6.63-3.45 8.91 8.91 0 0 0 1.59-1.62c2.46 1.23 3.36 1.8 3.36 2.16s-.22.45-1.52.45zm1.59-22h-6a19.32 19.32 0 0 0 -2.43.18l-.32-1.08a15.38 15.38 0 0 0 2.67.24h14c1.35-1.56 1.71-1.8 1.92-1.8s.63.24 2 1.26c.63.48.87.72.87.93s-.09.3-.39.3h-9.52v3.63h7.41c1.53-1.8 1.89-2 2.1-2s.6.24 2.1 1.41c.69.57.93.81.93 1s-.09.3-.39.3h-23.76a19.32 19.32 0 0 0 -2.43.18l-.35-1.18a15.38 15.38 0 0 0 2.67.24h8.94zm-4.77 18.75v.21c0 .72-.54 1-1.77 1-.9 0-1.17-.24-1.17-.93 0-1.35.15-2.7.15-8.1 0-1.8 0-3.6-.12-5.43a21.72 21.72 0 0 1 3.21 1.41h12.1c1-1 1.2-1.23 1.44-1.23s.57.18 1.71 1c.51.39.69.6.69.84s-.18.42-.81.9v1.74c0 4.56.12 7.71.12 8.73 0 .72-.51 1-1.8 1-.84 0-1.11-.21-1.11-.87v-.3zm12.6-11.16h-12.56v2.88h12.6zm0 3.57h-12.56v3h12.6zm0 3.72h-12.56v3.18h12.6zm3.33 10.08c-.63 0-1-.18-1.83-1a13.5 13.5 0 0 0 -6-3.51c-.15 0-.09-.39.06-.39 6.21.06 9.3 1.17 9.3 3.33a1.55 1.55 0 0 1 -1.49 1.55z"/><path d="m115.05 105h2.95c1.05-1.2 1.29-1.38 1.53-1.38s.54.18 1.53 1.11c.45.39.63.63.63.87s-.09.39-.81 1v2.34c0 10.65.06 11.25.06 11.85a2.71 2.71 0 0 1 -.72 2.07 3.46 3.46 0 0 1 -2.34.69c-.24 0-.3-.12-.33-.36-.09-1.26-.39-1.68-1.92-2.1-.18-.06-.18-.36 0-.36 1 .06 1.68.06 2.43.06.27 0 .33-.09.33-.42v-14.71h-9.06v17.16c0 .78-.51 1.08-1.53 1.08s-1.17-.3-1.17-1c0-1.86.21-3.75.21-11.19q0-4.05-.09-8.1a30.58 30.58 0 0 1 2.85 1.35h2.82v-3.56h-4.59a10.07 10.07 0 0 0 -1.74.18l-.33-1.11a9.33 9.33 0 0 0 2.07.24h4.59v-2a22.34 22.34 0 0 0 -.15-2.37c3.39.33 3.72.66 3.72 1s-.33.51-.93.81v2.58h2.58c1.29-1.65 1.65-1.89 1.86-1.89s.6.24 1.92 1.32c.6.48.84.75.84 1s-.09.3-.39.3h-6.81zm-3.69 11.25a6.7 6.7 0 0 0 -1.41.18l-.33-1.11a6.11 6.11 0 0 0 1.68.24h1.17v-3.48h-.9a6.7 6.7 0 0 0 -1.41.18l-.33-1.11a6.11 6.11 0 0 0 1.68.24h2.28a25.49 25.49 0 0 0 .84-3.09c.15-.66.27-1.32.36-2 2.07.69 2.55 1 2.55 1.29s-.15.36-.78.48a20.11 20.11 0 0 1 -2.34 3.33h1c.6-1.08.81-1.26 1-1.26s.42.15 1.11.87a1.52 1.52 0 0 1 .45.78c0 .21-.09.3-.39.3h-2.82v3.48h.6c.6-1 1-1.29 1.17-1.29s.51.24 1.14.9a1.63 1.63 0 0 1 .45.78c0 .21-.09.3-.39.3h-3c0 2.13.12 4.56.12 5.4 0 .63-.54.93-1.47.93-.78 0-1.08-.21-1.08-.81 0-.36.06-1.65.06-3.87v-1.65zm-.15-6.66a5.93 5.93 0 0 0 -.87-3c-.06-.12 0-.21.15-.15 1.89.9 2.79 1.8 2.79 2.91a1.23 1.23 0 0 1 -1.11 1.29c-.57-.03-.87-.36-.96-1.08zm12.9-3a11.69 11.69 0 0 0 -1.89.18l-.33-1.11a10.33 10.33 0 0 0 2.19.24h.92c.06-1.56.09-3.21.09-5a27.9 27.9 0 0 0 -.24-4.23c3.21.33 3.93.51 3.93 1 0 .33-.3.51-1 .84-.06 2-.09 3.93-.3 7.38h2.37c1.08-1.35 1.44-1.59 1.65-1.59s.57.24 1.56 1.14c.39.36.63.63.63.84s-.09.3-.39.3h-5.61a25.08 25.08 0 0 0 2.31 8.22 16.28 16.28 0 0 0 4.08 5.43c.15.12.09.24-.06.33-.9.57-1 1-1.44 2.37-.18.63-.27.81-.45.81s-.45-.3-.75-.69a18.79 18.79 0 0 1 -3.15-7.62 57.31 57.31 0 0 1 -.93-7.17c-.6 7.35-2.49 11.76-6.51 15.72-.12.12-.48-.15-.39-.3 2.73-4.17 4.11-9.39 4.5-17.1zm5.7-4.11a7.57 7.57 0 0 0 -1.35-3.48.13.13 0 0 1 .15-.18c2.34.87 3.57 1.95 3.57 3.24a1.46 1.46 0 0 1 -1.32 1.62c-.54-.03-.86-.39-1.05-1.23z"/></g></svg>