<svg viewBox="0 0 70 70" xmlns="http://www.w3.org/2000/svg"><g fill="#fff"><path d="m45.8 41.85-.12-.28c-.39-.89-5.06-2.27-5.45-2.29h-.31c-.64.13-1.34.74-2.81 2a19.22 19.22 0 0 1 -5-4 17 17 0 0 1 -3.11-5.11c1.68-1.49 2.39-2.14 2.43-2.86 0-.39-.78-5.19-1.62-5.67l-.26-.17a3.15 3.15 0 0 0 -2.25-.68 1.89 1.89 0 0 0 -.63.25 8 8 0 0 0 -2.77 2.76c-.41.84-.6 8.49 5.13 15s12.65 6.67 13.69 6.45h.1a8.18 8.18 0 0 0 3.07-2.41c.83-1.11.23-2.34-.09-2.99z"/><path d="m35 2a33 33 0 1 1 -33 33 33 33 0 0 1 33-33m0-2a35 35 0 0 0 0 70 35 35 0 0 0 0-70z"/></g></svg>