<svg viewBox="0 0 240 48.73" xmlns="http://www.w3.org/2000/svg"><g fill="#fff"><path d="m37.48 0h-13.12v24.36h-9.37l1.13 13.12h21.36z"/><path d="m21.36 0h-21.36v48.73h13.12v-35.61h9.37z"/><path d="m196.21 5.81a12.93 12.93 0 1 0 13.06 12.93 13 13 0 0 0 -13.06-12.93m0 21.8a8.69 8.69 0 0 1 -8.5-8.87 8.51 8.51 0 1 1 17 0 8.69 8.69 0 0 1 -8.5 8.87"/><path d="m90.2 20.61h12.5v-3.99h-12.5v-6.4h14v-3.97h-18.49v24.98h18.74v-3.97h-14.25z"/><path d="m227.01 27.24v-20.99h-4.5v24.98h17.49v-3.99z"/><path d="m63.59 6.25h-9.87v25h4.5v-8h5.37c5.44 0 9.37-3.81 9.37-8.5s-2.87-8.49-9.37-8.49m-.37 13h-5v-9h5c3.69 0 5.37 2 5.37 4.49s-1.94 4.5-5.37 4.5"/><path d="m139.18 14.74c0-4.69-2.88-8.49-9.37-8.49h-9.87v25h4.49v-8h4.9l5.6 8h5.25l-6.18-8.85a8.35 8.35 0 0 0 5.19-7.66m-9.75 4.5h-5v-9h5c3.7 0 5.37 2 5.37 4.49s-1.93 4.5-5.37 4.5"/><path d="m168.55 18.52a19.52 19.52 0 0 0 -5.87-2.14c-4.25-1.07-4.94-1.84-4.94-3.26 0-2.16 2.1-3.13 4.18-3.13a12.52 12.52 0 0 1 6.83 2.32 12.78 12.78 0 0 1 2.16 1.84v-5.5a16.61 16.61 0 0 0 -9-2.9c-4.88 0-8.43 3.1-8.43 7.37 0 5.33 5.11 6.61 8.16 7.38 4.73 1.19 5.81 1.91 5.81 3.86a2.29 2.29 0 0 1 -1.13 2.14 7.56 7.56 0 0 1 -3.91.86c-3.61 0-7.55-2.61-8.75-3.79v5.27l.23.14a17.67 17.67 0 0 0 8.52 2.63c5.73 0 9.29-2.78 9.29-7.25a6.54 6.54 0 0 0 -3.16-5.84"/></g></svg>