<svg viewBox="0 0 410.58 42" xmlns="http://www.w3.org/2000/svg"><g fill="#54565a" stroke="#54565a" stroke-miterlimit="10" stroke-width=".73"><path d="m169.43 6.41c-.35 4.34-1.13 8.93-4.48 12.89-3.86 4.58-9.08 5.67-11.45 6.15l-.5-1.45c11.42-2.34 14.24-9.32 14.74-16.13h-17.46v-1.46z"/><path d="m189.67 9.92c-.5 3.12-2.22 6.65-6.4 8l-.71-1.26a7.16 7.16 0 0 0 5.44-5.46h-14.8v-1.28zm-16 14.92c6-2.95 6.07-6.45 6.17-11.54h1.42c-.08 5.57-.84 9.6-6.74 12.68z"/><path d="m200.4 15.54a26.37 26.37 0 0 0 -7.13-3l.73-1.44a29.29 29.29 0 0 1 7.13 2.9zm-5.9 7.84c10.41-1.11 14.75-5.24 17.77-14.42l1.21.93c-3.52 9.93-7.38 13.56-18.67 15.18zm7.87-13.69a28.63 28.63 0 0 0 -7.19-3l.66-1.34a27.74 27.74 0 0 1 7.23 2.8z"/><path d="m218.77 18.89h-1.51v-13.56h1.51zm13.31-3.15c0 8.45-7.11 9.68-13.36 10l-.33-1.48c7.82-.23 12.1-2 12.1-8.42v-10.94h1.59z"/><path d="m248.06 14.36c0 8.44-4.82 10.41-9.61 11.44l-.63-1.41c3.48-.66 6.3-1.82 7.67-4.69a15.07 15.07 0 0 0 1-5.17v-1h-10.26v-1.47h20.42v1.44h-8.59zm6.52-8.88v1.46h-16.28v-1.46z"/><path d="m266.45 26h-1.38v-9.73a31.93 31.93 0 0 1 -8.42 4.56l-.71-1.33a29.63 29.63 0 0 0 14.57-10.44l1.34.86a34.09 34.09 0 0 1 -5.4 5.27z"/><path d="m280.31 13.6a68.14 68.14 0 0 1 5.29 4.56 28.9 28.9 0 0 0 9.13-9.55h-19.08v-1.51h21.47c-1.58 4.13-5.21 8.67-10.48 12.07a46.41 46.41 0 0 1 4.36 5.12l-1.26 1a55.73 55.73 0 0 0 -10.43-10.66z"/><path d="m309.62 4.45h1.49v3.75h7.21v1.32a34.09 34.09 0 0 1 -7.21 6.75v9.78h-1.49v-8.77a38.12 38.12 0 0 1 -9.48 4.28l-.6-1.46c6.7-1.71 13.26-6 16.76-10.51h-15.1v-1.39h8.42zm10.84 16.89a41.69 41.69 0 0 0 -7.46-4.26l.83-1.14a53.68 53.68 0 0 1 7.39 4z"/><path d="m331 15.67a35.52 35.52 0 0 0 -7.16-3l.66-1.39a31.18 31.18 0 0 1 7.18 2.85zm-5.93 7.89c11.93-1.16 15.14-6.94 17.44-13.89l1.33.95c-3.07 9-7.81 13.26-18.37 14.6zm7.93-13.79a34.09 34.09 0 0 0 -7.24-2.93l.68-1.36a35.71 35.71 0 0 1 7.24 2.8zm7-6.58a24.58 24.58 0 0 1 2.22 4.94l-1.39.68a25.58 25.58 0 0 0 -2.09-5zm3.75-.28a23.09 23.09 0 0 1 2.25 4.92l-1.39.7a23.39 23.39 0 0 0 -2.14-5z"/><path d="m351 8.78a61.37 61.37 0 0 1 7.69 5.15 40.65 40.65 0 0 0 4.31-9.18l1.58.53a43.92 43.92 0 0 1 -4.63 9.6 54.4 54.4 0 0 1 5.87 5.32l-1.16 1.24a56.89 56.89 0 0 0 -5.66-5.27 28.83 28.83 0 0 1 -11.75 9.28l-.83-1.36a25.66 25.66 0 0 0 11.39-8.9 61.3 61.3 0 0 0 -7.68-5.25z"/><path d="m376.8 11.38a29.59 29.59 0 0 0 -7.74-3.53l.86-1.44a32 32 0 0 1 7.77 3.51zm-7.16 11.95a18.69 18.69 0 0 0 11.62-4.24c4.64-3.85 6.31-9.1 7-11.24l1.31 1a25.11 25.11 0 0 1 -7.72 11.73 20.53 20.53 0 0 1 -11.94 4.46z"/><path d="m409.34 18.29a62.56 62.56 0 0 0 -11.77-5.55v13.26h-1.64v-21.53h1.64v6.71a75.06 75.06 0 0 1 12.53 5.54z"/><path d="m57 6.09c-.47 4.18-1.81 11.9-6.57 18.8l-1.43-.8c3.58-5.27 5.42-10.44 6.38-18.26zm11.47 18.4a53.85 53.85 0 0 0 -6.2-18l1.41-.73a55.6 55.6 0 0 1 6.52 18.33zm4.76-18.58a3.53 3.53 0 1 1 -3.53-3.53 3.52 3.52 0 0 1 3.53 3.53zm-5.75 0a2.2 2.2 0 0 0 2.22 2.22 2.23 2.23 0 1 0 -2.22-2.22z"/><path d="m96.39 14.46v1.63h-21.73v-1.63z"/><path d="m103.21 14.36a29.59 29.59 0 0 0 -4.41-6.91l1.36-.73a28.72 28.72 0 0 1 4.59 6.83zm-2.21 9.75c11.67-2.37 14.26-11.62 15.5-18.15l1.66.23c-1.28 6.2-3.73 16.26-16.2 19.28z"/><path d="m125.21 12c0 6.23-1.26 10.11-5 13.84l-1.08-1.08c4.34-3.94 4.61-8.83 4.61-12.66v-6.52h1.49zm6.48 11.6c6.38-1.21 7.91-5.73 8.72-10.37l1.41.59c-1 5.06-3 10.68-11.67 11.62v-20.61h1.54z"/></g><path d="m16.8 25.25h14.4v-25.25h-8.84v16.41h-6.31z" fill="#98989a"/><path d="m14.78 8.84h6.32l-.76-8.84h-14.39v32.82h8.83z" fill="#98989a"/><path d="m28.8 36.77a2.62 2.62 0 1 0 2.63 2.62 2.63 2.63 0 0 0 -2.63-2.62m0 4.41a1.8 1.8 0 1 1 1.71-1.79 1.76 1.76 0 0 1 -1.71 1.79" fill="#98989a"/><path d="m7.37 39.77h2.53v-.81h-2.53v-1.29h2.83v-.81h-3.74v5.05h3.79v-.8h-2.88z" fill="#98989a"/><path d="m35.02 41.1v-4.24h-.91v5.05h3.54v-.81z" fill="#98989a"/><path d="m2 36.86h-2v5h.91v-1.56h1.09a1.79 1.79 0 0 0 1.9-1.72 1.67 1.67 0 0 0 -1.9-1.72m-.07 2.63h-1v-1.82h1c.75 0 1.09.41 1.09.91a1 1 0 0 1 -1.09.91" fill="#98989a"/><path d="m17.27 38.58a1.66 1.66 0 0 0 -1.89-1.72h-2v5h.91v-1.56h1l1.13 1.61h1.06l-1.25-1.78a1.69 1.69 0 0 0 1.05-1.55m-2 .91h-1v-1.82h1c.75 0 1.09.41 1.09.91s-.39.91-1.09.91" fill="#98989a"/><path d="m23.2 39.34a4.16 4.16 0 0 0 -1.2-.43c-.86-.21-1-.37-1-.66s.43-.63.85-.63a2.54 2.54 0 0 1 1.38.47 2.44 2.44 0 0 1 .43.37v-1.11a3.28 3.28 0 0 0 -1.81-.59 1.56 1.56 0 0 0 -1.71 1.49c0 1.08 1 1.34 1.65 1.49 1 .24 1.18.39 1.18.78a.47.47 0 0 1 -.23.44 1.57 1.57 0 0 1 -.79.17 3 3 0 0 1 -1.77-.77v1.07a3.61 3.61 0 0 0 1.82.57c1.16 0 1.87-.56 1.87-1.47a1.31 1.31 0 0 0 -.64-1.18" fill="#98989a"/></svg>