<svg width="55" height="56" viewBox="0 0 55 56" fill="none" xmlns="http://www.w3.org/2000/svg">
<circle cx="20" cy="28.2842" r="19.5" stroke="#52B7B6"/>
<path d="M19.08 26.61C22.12 26.61 24.33 27.16 25.71 28.26C27.11 29.34 27.81 30.86 27.81 32.82C27.81 34.04 27.52 35.13 26.94 36.09C26.38 37.05 25.53 37.81 24.39 38.37C23.25 38.91 21.85 39.18 20.19 39.18C18.69 39.18 17.26 38.94 15.9 38.46C14.56 37.96 13.48 37.3 12.66 36.48L13.71 34.77C14.41 35.49 15.33 36.08 16.47 36.54C17.61 36.98 18.84 37.2 20.16 37.2C21.9 37.2 23.24 36.81 24.18 36.03C25.14 35.25 25.62 34.21 25.62 32.91C25.62 31.47 25.08 30.38 24 29.64C22.94 28.9 21.14 28.53 18.6 28.53H14.13L15.21 18H26.7V19.92H17.1L16.38 26.61H19.08Z" fill="#52B7B6"/>
<path d="M40 28.2842H55" stroke="#52B7B6"/>
</svg>
