<svg width="55" height="56" viewBox="0 0 55 56" fill="none" xmlns="http://www.w3.org/2000/svg">
<circle cx="20" cy="28.3726" r="19.5" stroke="#52B7B6"/>
<path d="M27.9 37.08V39H13.17V37.47L21.9 28.92C23 27.84 23.74 26.91 24.12 26.13C24.52 25.33 24.72 24.53 24.72 23.73C24.72 22.49 24.29 21.53 23.43 20.85C22.59 20.15 21.38 19.8 19.8 19.8C17.34 19.8 15.43 20.58 14.07 22.14L12.54 20.82C13.36 19.86 14.4 19.12 15.66 18.6C16.94 18.08 18.38 17.82 19.98 17.82C22.12 17.82 23.81 18.33 25.05 19.35C26.31 20.35 26.94 21.73 26.94 23.49C26.94 24.57 26.7 25.61 26.22 26.61C25.74 27.61 24.83 28.76 23.49 30.06L16.35 37.08H27.9Z" fill="#52B7B6"/>
<path d="M40 28.3726H55" stroke="#52B7B6"/>
</svg>
