<svg width="55" height="56" viewBox="0 0 55 56" fill="none" xmlns="http://www.w3.org/2000/svg">
<circle cx="20" cy="27.8428" r="19.5" stroke="#52B7B6"/>
<path d="M20.7 27C22.9 27.12 24.57 27.72 25.71 28.8C26.87 29.86 27.45 31.25 27.45 32.97C27.45 34.17 27.16 35.24 26.58 36.18C26 37.1 25.14 37.83 24 38.37C22.86 38.91 21.47 39.18 19.83 39.18C18.31 39.18 16.87 38.94 15.51 38.46C14.17 37.96 13.09 37.3 12.27 36.48L13.32 34.77C14.02 35.49 14.95 36.08 16.11 36.54C17.27 36.98 18.51 37.2 19.83 37.2C21.55 37.2 22.88 36.83 23.82 36.09C24.76 35.33 25.23 34.29 25.23 32.97C25.23 31.67 24.76 30.65 23.82 29.91C22.88 29.17 21.46 28.8 19.56 28.8H18.06V27.21L23.88 19.92H13.14V18H26.64V19.53L20.7 27Z" fill="#52B7B6"/>
<path d="M40 27.8428H55" stroke="#52B7B6"/>
</svg>
