<?xml version="1.0" encoding="utf-8"?>
<!-- Generator: Adobe Illustrator 27.9.0, SVG Export Plug-In . SVG Version: 6.00 Build 0)  -->
<svg version="1.1" id="レイヤー_1" xmlns="http://www.w3.org/2000/svg" xmlns:xlink="http://www.w3.org/1999/xlink" x="0px"
	 y="0px" viewBox="0 0 392 40" style="enable-background:new 0 0 392 40;" xml:space="preserve">
<style type="text/css">
	.st0{fill:#54565A;stroke:#54565A;stroke-width:0.67;stroke-miterlimit:10;}
	.st1{fill:#98989A;}
	.st2{fill:none;}
</style>
<g>
	<g id="レイヤー_2_00000101822274854612210350000011565969136797245112_">
		<g id="Navi_00000002380985775131167480000011805023413914930827_">
			<path class="st0" d="M161.3,6.1c-0.3,4.1-1.1,8.5-4.3,12.3c-3.7,4.4-8.6,5.4-10.9,5.9l-0.5-1.3c10.9-2.2,13.6-8.9,14-15.3h-16.5
				V6.1H161.3z"/>
			<path class="st0" d="M180.6,9.5c-0.4,3.5-2.8,6.5-6.1,7.6l-0.7-1.2c2.6-0.6,4.6-2.6,5.2-5.2h-14.1V9.5H180.6z M165.4,23.6
				c5.7-2.8,5.8-6.1,5.9-11h1.3c-0.1,5.3-0.8,9.1-6.4,12.1L165.4,23.6z"/>
			<path class="st0" d="M190.8,14.8c-2.1-1.3-4.4-2.3-6.8-2.9l0.7-1.3c2.4,0.6,4.7,1.5,6.9,2.8L190.8,14.8z M185.2,22.3
				c9.9-1.1,14-5,16.9-13.7l1.1,0.9c-3.4,9.5-7,12.9-17.8,14.4L185.2,22.3z M192.7,9.2c-2.1-1.3-4.5-2.3-6.9-2.9l0.6-1.3
				c2.4,0.6,4.7,1.5,6.9,2.7L192.7,9.2z"/>
			<path class="st0" d="M208.3,18h-1.4V5.1h1.4V18z M220.9,15c0,8-6.8,9.2-12.7,9.5l-0.3-1.4c7.4-0.2,11.5-1.9,11.5-8V4.7h1.6
				L220.9,15z"/>
			<path class="st0" d="M236.2,13.7c0,8-4.6,9.9-9.1,10.9l-0.6-1.3c3.3-0.6,6-1.7,7.3-4.5c0.6-1.6,0.9-3.2,1-4.9v-1h-9.8v-1.4h19.4
				v1.4h-8.2V13.7z M242.4,5.3v1.4h-15.5V5.3H242.4z"/>
			<path class="st0" d="M253.7,24.8h-1.3v-9.3c-2.4,1.8-5.1,3.3-8,4.3l-0.7-1.3c5.5-1.8,10.4-5.3,13.9-9.9l1.3,0.8
				c-1.5,1.9-3.2,3.5-5.1,5L253.7,24.8z"/>
			<path class="st0" d="M266.9,13c0.8,0.6,2.9,2.3,5,4.3c3.6-2.3,6.5-5.4,8.7-9.1h-18.2V6.8h20.4c-2.1,4.8-5.6,8.8-10,11.5
				c1.5,1.5,2.9,3.1,4.2,4.9l-1.2,1c-2.8-3.8-6.2-7.2-9.9-10.1L266.9,13z"/>
			<path class="st0" d="M294.8,4.2h1.4v3.6h6.9v1.3c-2,2.5-4.3,4.6-6.9,6.4v9.3h-1.4v-8.3c-2.8,1.8-5.9,3.1-9,4.1l-0.6-1.4
				c6.4-1.6,12.6-5.7,16-10h-14.4V7.8h8V4.2z M305.1,20.3c-2.2-1.6-4.6-3-7.1-4.1l0.8-1.1c2.4,1.1,4.8,2.4,7,3.8L305.1,20.3z"/>
			<path class="st0" d="M315.1,14.9c-2.2-1.2-4.4-2.1-6.8-2.8l0.6-1.3c2.4,0.6,4.7,1.5,6.8,2.7L315.1,14.9z M309.5,22.4
				c11.4-1.1,14.4-6.6,16.6-13.2l1.3,0.9c-2.9,8.6-7.4,12.6-17.5,13.9L309.5,22.4z M317,9.3c-2.2-1.2-4.5-2.1-6.9-2.8l0.6-1.3
				c2.4,0.6,4.7,1.5,6.9,2.7L317,9.3z M323.7,3c0.9,1.5,1.6,3.1,2.1,4.7l-1.3,0.7c-0.5-1.7-1.2-3.2-2-4.8L323.7,3z M327.3,2.8
				c0.9,1.5,1.6,3,2.1,4.7l-1.3,0.7c-0.5-1.7-1.2-3.3-2-4.8L327.3,2.8z"/>
			<path class="st0" d="M334.2,8.4c2.6,1.4,5,3.1,7.4,4.9c1.7-2.7,3.1-5.7,4.1-8.7l1.5,0.5c-1.1,3.2-2.6,6.3-4.4,9.1
				c2,1.5,3.9,3.2,5.6,5.1l-1.1,1.2c-1.6-1.8-3.4-3.5-5.3-5c-2.9,3.9-6.8,6.9-11.3,8.8l-0.8-1.3c4.3-1.7,8.1-4.6,10.8-8.4
				c-2.3-1.9-4.8-3.5-7.3-5L334.2,8.4z"/>
			<path class="st0" d="M358.8,10.8c-2.3-1.5-4.8-2.6-7.4-3.4l0.8-1.4c2.6,0.8,5.1,1.9,7.4,3.3L358.8,10.8z M351.9,22.2
				c4.1,0,8-1.5,11.1-4c3.2-2.9,5.5-6.6,6.6-10.7l1.3,1c-1.3,4.3-3.9,8.2-7.4,11.2c-3.2,2.6-7.2,4.1-11.4,4.2L351.9,22.2z"/>
			<path class="st0" d="M389.7,17.4c-3.5-2.1-7.3-3.9-11.2-5.3v12.6H377V4.3h1.6v6.4c4.1,1.4,8.1,3.1,11.9,5.3L389.7,17.4z"/>
			<path class="st0" d="M54.3,5.8c-0.6,6.4-2.8,12.5-6.3,17.9l-1.4-0.8c3.4-5,5.2-9.9,6.1-17.4L54.3,5.8z M65.2,23.3
				c-0.9-6-2.9-11.8-5.9-17.1l1.3-0.7c3.1,5.4,5.1,11.3,6.2,17.4L65.2,23.3z M69.7,5.6c0,1.9-1.5,3.4-3.4,3.4S63,7.5,63,5.6
				s1.5-3.4,3.4-3.4l0,0C68.2,2.3,69.7,3.8,69.7,5.6z M64.2,5.6c0,1.2,0.9,2.1,2.1,2.1c1.2,0,2.1-0.9,2.1-2.1s-0.9-2.1-2.1-2.1
				C65.2,3.5,64.2,4.5,64.2,5.6z"/>
			<path class="st0" d="M91.8,13.8v1.6H71.1v-1.6H91.8z"/>
			<path class="st0" d="M98.3,13.7c-1.1-2.4-2.5-4.6-4.2-6.6l1.3-0.7c1.8,1.9,3.2,4.1,4.4,6.5L98.3,13.7z M96.2,23
				c11.1-2.3,13.6-11.1,14.7-17.3l1.6,0.2c-1.2,5.9-3.5,15.5-15.4,18.3L96.2,23z"/>
			<path class="st0" d="M119.2,11.4c0,5.9-1.2,9.6-4.8,13.2l-1.1-1.1c4.1-3.7,4.4-8.4,4.4-12V5.3h1.4L119.2,11.4z M125.4,22.4
				c6.1-1.1,7.5-5.4,8.3-9.9l1.3,0.6c-1,4.8-2.8,10.2-11.1,11.1V4.6h1.5V22.4z"/>
			<polygon class="st1" points="16,24 29.7,24 29.7,0 21.3,0 21.3,15.6 15.3,15.6 			"/>
			<polygon class="st1" points="14.1,8.4 20.1,8.4 19.4,0 5.7,0 5.7,31.3 14.1,31.3 			"/>
			<path class="st1" d="M27.4,35c-1.4,0-2.5,1.1-2.5,2.5c0,1.4,1.1,2.5,2.5,2.5c1.4,0,2.5-1.1,2.5-2.5C29.9,36.1,28.8,35,27.4,35
				C27.4,35,27.4,35,27.4,35 M27.4,39.2c-0.9,0-1.7-0.7-1.8-1.6c0-0.9,0.7-1.7,1.6-1.8c0.9,0,1.7,0.7,1.8,1.6c0,0,0,0.1,0,0.1
				C29.1,38.4,28.3,39.2,27.4,39.2C27.4,39.2,27.4,39.2,27.4,39.2"/>
			<polygon class="st1" points="7,37.9 9.4,37.9 9.4,37.1 7,37.1 7,35.9 9.7,35.9 9.7,35.1 6.2,35.1 6.2,39.9 9.8,39.9 9.8,39.1 
				7,39.1 			"/>
			<polygon class="st1" points="33.3,39.1 33.3,35.1 32.5,35.1 32.5,39.9 35.8,39.9 35.8,39.1 			"/>
			<path class="st1" d="M1.9,35.1H0v4.8h0.9v-1.5h1.1c0.9,0.1,1.7-0.6,1.8-1.6c0,0,0,0,0-0.1c0-0.9-0.6-1.6-1.5-1.7
				C2.1,35.1,2,35.1,1.9,35.1 M1.8,37.6h-1v-1.7h1c0.7,0,1.1,0.4,1.1,0.9C2.9,37.2,2.4,37.6,1.8,37.6C1.9,37.6,1.9,37.6,1.8,37.6"/>
			<path class="st1" d="M16.4,36.7c0-0.9-0.6-1.6-1.5-1.7c-0.1,0-0.2,0-0.3,0h-1.9v4.8h0.9v-1.5h0.9l1.1,1.5h1.1l-1.2-1.7
				C16.1,38,16.5,37.4,16.4,36.7 M14.6,37.6h-1v-1.7h1c0.7,0,1.1,0.4,1.1,0.9C15.7,37.2,15.3,37.6,14.6,37.6"/>
			<path class="st1" d="M22.1,37.5c-0.3-0.2-0.7-0.3-1.1-0.4c-0.8-0.2-0.9-0.4-0.9-0.6s0.4-0.6,0.8-0.6c0.5,0,0.9,0.2,1.3,0.4
				c0.2,0.1,0.3,0.2,0.4,0.4v-1.1C22,35.2,21.4,35,20.8,35c-0.8-0.1-1.5,0.5-1.6,1.3c0,0,0,0.1,0,0.1c0,1.1,1,1.3,1.6,1.4
				c0.9,0.2,1.1,0.4,1.1,0.7c0,0.2-0.1,0.3-0.2,0.4c-0.2,0.1-0.5,0.2-0.8,0.2c-0.6,0-1.2-0.3-1.7-0.7v1.1l0,0
				c0.5,0.3,1.1,0.5,1.6,0.5c1.1,0,1.8-0.5,1.8-1.4C22.7,38.1,22.5,37.7,22.1,37.5"/>
		</g>
	</g>
	<rect class="st2" width="390.5" height="40"/>
</g>
<g>
</g>
<g>
</g>
<g>
</g>
<g>
</g>
<g>
</g>
<g>
</g>
<g>
</g>
<g>
</g>
<g>
</g>
<g>
</g>
<g>
</g>
<g>
</g>
<g>
</g>
<g>
</g>
<g>
</g>
</svg>
