<svg viewBox="0 0 300 34.53" xmlns="http://www.w3.org/2000/svg"><g fill="#fff"><path d="m4.08 27.87a5 5 0 0 0 .31 1.79 3.36 3.36 0 0 1 .26 1.24 1.49 1.49 0 0 1 -1.4 1.68c-2.25 0-3.25-4.45-3.25-7.97s1.06-7.16 2.08-11a13.4 13.4 0 0 0 .53-3.33 8.41 8.41 0 0 0 -2-5.32c-.15-.19-.3-.34-.3-.45s.26-.34.6-.34c1.59 0 4.58 3.3 4.58 6.18a10.75 10.75 0 0 1 -1.29 4.15c-1.1 2.5-2.12 5.24-2.12 7.56 0 1.31.34 1.87.42 1.87s.18-.11.34-.41c1.13-2.43 3.89-7.6 4.38-7.6v.11a3.89 3.89 0 0 1 -.42 1.31c-.22.6-2.76 6.71-2.76 10.53m23.86 1.27a1.76 1.76 0 0 1 -1.51 1.86 2.15 2.15 0 0 1 -1.7-1.27 9.38 9.38 0 0 0 -2.76-2.81 6.31 6.31 0 0 1 -6.16 5.08c-2.88 0-5.3-2-5.3-4.31 0-2.1 2.65-4.05 7.07-4.05a13.74 13.74 0 0 1 2.12.15c0-.52 0-1 0-1.38 0-1.58-.11-4.95-.15-8.28h-.11a9.78 9.78 0 0 1 -1.52.15c-4.91 0-6.35-3.86-6.35-4.08s0-.15.15-.15a6 6 0 0 1 1 .3c1 .33 2.12.9 2.91 1.08a10.85 10.85 0 0 0 2.39.3 8.07 8.07 0 0 0 1-.07c.15 0 .34 0 .49-.08v-2.28c0-3.07-.15-3.45-1.81-3.86-.34-.07-.57-.15-.57-.37a2.36 2.36 0 0 1 2.08-1.47c1.1 0 3.14 1.32 3.14 3a9.94 9.94 0 0 1 -.15 1.31 24.52 24.52 0 0 0 3.48.75 1.24 1.24 0 0 1 1.17 1.34c0 .9-.53 2.55-5.18 3.71v1.65c0 1.42.08 4.42.49 9 3.1 1 5.86 2.93 5.86 4.8m-11.98-3.73c-2.8 0-4.27 1.16-4.27 2.06 0 1.57 2.31 1.91 3.21 1.91a4.36 4.36 0 0 0 4.5-3.4 11.07 11.07 0 0 0 -3.44-.57m7.75-15.69c0-.11-.12-.64-1.67-1.43v.23c-.15.86-.19 1.69-.26 2.51.11 0 2-.56 2-1.31"/><path d="m47.76 11.05-.19.49a108.37 108.37 0 0 0 -4.57 15.77 6.67 6.67 0 0 1 -1.78 3.85 1.8 1.8 0 0 1 -1.21.53c-1 0-1.44-1.35-1.44-2.21a6.92 6.92 0 0 1 1.17-3.19 135.13 135.13 0 0 0 5.71-14.38l.08-.22a7.62 7.62 0 0 1 -2 .26c-2.08 0-5.37-1.2-5.37-3.9 0-.22.07-.33.19-.33a3.53 3.53 0 0 1 .75.33 9.45 9.45 0 0 0 4.2 1.2 12.06 12.06 0 0 0 2.83-.37 11.29 11.29 0 0 0 .16-2c0-1.27-.27-2.29-1-2.32-.6 0-1-.15-1-.45a2.16 2.16 0 0 1 1.93-1.5 3.07 3.07 0 0 1 2.78 3.39 8.28 8.28 0 0 1 -.19 1.57c.87-.26 1.28-1.12 2.12-1.31a1.71 1.71 0 0 1 .45 0c.72 0 1.25.34 1.25 1 0 2.09-4.35 3.59-4.84 3.78m16.49 18.55c0 1.39-2.12 2-4.46 2-4.69 0-8.73-2.58-8.73-5.43a3.47 3.47 0 0 1 1.55-2.85c.11 0 .15.12.15.3a2.54 2.54 0 0 1 -.27 1 1.39 1.39 0 0 0 -.11.52c0 1.46 2.65 3 5.71 3h.38a24 24 0 0 1 2.5-.3c2.2 0 3.33.9 3.33 1.76m1.1-17.19c0 .6-.49 1.16-1.51 1.31a10.81 10.81 0 0 0 -5.72 2.36 2.2 2.2 0 0 1 -.9.49c-.08 0-.12 0-.12-.08a1.43 1.43 0 0 1 .38-.71c1.93-2.47 2.31-3 2.31-3.45 0-.63-1.59-1.27-2.61-1.27a1.71 1.71 0 0 0 -.45 0 12.65 12.65 0 0 1 -1.52.3c-.15 0-.18 0-.18-.12s1-1.87 4.19-1.87 6.13 1.65 6.13 3"/><path d="m81.15 33.82c-.42 0-.65 0-.65-.11s.46-.3 1.36-.52c6.06-1.5 9.87-5.51 9.87-8.62a3.91 3.91 0 0 0 -4-4c-2.57 0-4.12 2.28-6 5.54-.57.94-1.17 1.39-1.85 1.39-.49 0-3.67-.56-3.67-6a34.06 34.06 0 0 1 .61-5.69 23.54 23.54 0 0 0 .49-3.56c0-.15 0-.3 0-.41a5.29 5.29 0 0 1 0-.79c0-1.87.87-3 2.69-4.12.68-.41 1.4-.75 2.08-1.2a1.15 1.15 0 0 0 .56-.94 1.32 1.32 0 0 0 -.19-.67 8 8 0 0 1 -1-2.32c0-.15.07-.19.22-.19 1.21 0 6.2 2.51 6.2 5.09a1.66 1.66 0 0 1 -1.77 1.8 6 6 0 0 1 -1.78-.37 9.71 9.71 0 0 0 -2.87-.53c-1.63 0-2.45.83-2.45 2.06a4.2 4.2 0 0 0 .22 1.2 7.37 7.37 0 0 1 .42 2.32 16.74 16.74 0 0 1 -.45 3 29.68 29.68 0 0 0 -.49 4.68c0 2.36.79 2.51 1.06 2.51a1.81 1.81 0 0 0 1-.41c.91-.6 1.89-1.46 3.67-2.55a8.4 8.4 0 0 1 4.34-1.27c3.07 0 6.4 2.09 6.4 5.5a7.72 7.72 0 0 1 -2.8 5.47c-3 2.77-8.77 3.67-11.23 3.67"/><path d="m115.63 24.53a12.4 12.4 0 0 0 .23 2.33 2.6 2.6 0 0 1 .07.56c0 1-.79 1.76-2.26 1.76-1.21 0-8.66-1.39-8.66-12.92 0-1.17.07-2.37.15-3.53 0-.41 0-.86 0-1.31a15.53 15.53 0 0 0 -.12-2.13 5.38 5.38 0 0 1 -.11-.9c0-.19 0-.3.23-.3a4.36 4.36 0 0 1 3.29 4.34 8 8 0 0 1 -.19 1.65 22.53 22.53 0 0 0 -.53 4.46c0 5.77 4 6.44 4.23 6.44a1.39 1.39 0 0 0 1.17-.67c.72-1.28 1.59-3.3 2.27-4.65.53-1 .84-1.53 1-1.53s.07.07.07.19a10.25 10.25 0 0 1 -.3 1.68 21.17 21.17 0 0 0 -.53 4.53m16.07-5.17c0 1.65-1 2.48-2 2.48a1.9 1.9 0 0 1 -1.82-2c-.3-3.71-3-6.82-5.6-7.45-1-.26-1.58-.49-1.58-.68s.3-.18 1-.18c6.84 0 10 4.53 10 7.82"/><path d="m164.86 7.3c0 .86-.79 1.65-2.38 1.65-.26 0-.57 0-.87-.07a11.68 11.68 0 0 0 -2-.15 13.47 13.47 0 0 0 -5.61 1.08c-2.27 1.28-4.08 6.37-4.08 10.86 0 5.55 2.76 7.87 5.75 7.87a6.27 6.27 0 0 0 2-.34 3.34 3.34 0 0 1 1.17-.18 2 2 0 0 1 2.2 1.72c0 2.06-3.37 2.51-5 2.51s-8.17-.49-8.17-9.7c0-4.2 1.4-9 3.51-11.61.16-.19.31-.34.31-.42a46.82 46.82 0 0 0 -7.69 3.48 5.15 5.15 0 0 1 -2.42.52c-1.4 0-3.89-.59-3.89-2.35 0-.38.11-.49.34-.49s.49.11.79.15a11 11 0 0 0 1.55.15 6.79 6.79 0 0 0 2.68-.53c3.41-1.27 8.55-4 13.92-5.54a9.64 9.64 0 0 1 3.14-.82h.3c3.55 0 4.42 1.38 4.42 2.24"/><path d="m173 32.47a14.94 14.94 0 0 0 -4.47-4.94c-.37-.3-.68-.49-.68-.6s.12-.07.34-.07c1.48 0 8.78 1.19 8.78 4.9a2.09 2.09 0 0 1 -2 2.14 2.3 2.3 0 0 1 -2-1.43"/><path d="m207 21.35c2.34 4.23 7.9 8.43 15.88 8.88.15 0 .23 0 .23.07 0 .34-3.67 1.57-4.81 2.81a1 1 0 0 1 -.72.34c-2.19 0-9.18-4.2-11-11.54-2.95 11.84-17.05 12-17.62 12-.41 0-.68 0-.68-.15s.27-.19.87-.3c6.77-1.24 12.9-5.77 14.3-12.1h-2c-2.08 0-6.77.11-10 .41-.72 0-1.85-1.42-1.85-1.87 3.7.45 9.87.56 12 .56h2a17.51 17.51 0 0 0 .15-1.95 20.71 20.71 0 0 0 -.12-2.69c-2 .07-4.12.14-6.05.14-3.55 0-5.25-.11-5.25-.44 0-.12.26-.23.94-.27 4.58-.26 15.77-1.57 19-3.48l.22-.15a2.94 2.94 0 0 1 -.3-.52 11 11 0 0 0 -2-3c-.19-.19-.35-.3-.35-.38s.12-.11.42-.11c1.29 0 5.37.6 5.37 3a1.79 1.79 0 0 1 -1.63 1.82c.76.75 1.78 1.76 1.78 2.33 0 .3-.27.41-.64.41a2.92 2.92 0 0 1 -.91-.15 1.36 1.36 0 0 0 -.42-.08c-.11 0-.23 0-.3 0-1.7.26-3.86.45-6.16.6.18 0 .34.11.49.15.34.11.45.26.45.41s-.23.38-.6.6-.53.34-.61 1c-.08.83-.15 1.69-.23 2.21v.23a.66.66 0 0 1 0 .26h7.82a.86.86 0 0 0 .65-.34c1.62-2.24 2-2.73 2.41-2.73.91 0 3.9 2.58 3.9 3.52 0 .22-.15.45-.79.45zm-11.2-14.5c-3.29 3.86-6.42 6-7 6a.09.09 0 0 1 -.08-.08c0-.11.15-.33.49-.71 1.82-2 5.64-7.75 6.24-11.68 0-.23 0-.34.11-.34.38 0 4.73 1.46 4.73 2.58 0 .3-.49.49-1.32.57-.42 0-.57.15-.87.63a25.34 25.34 0 0 1 -1.54 2.18h3.21a.58.58 0 0 0 .49-.3c1-1.53 1.48-2.32 1.93-2.32.8 0 3.14 2.14 3.14 3.07 0 .23-.15.45-.72.45zm2.12 4.5a10.3 10.3 0 0 0 -2-3.15c-.19-.15-.34-.3-.34-.37s.11-.12.41-.12c.72 0 5.49.45 5.49 3.19a1.84 1.84 0 0 1 -1.78 1.87 2 2 0 0 1 -1.74-1.42m10.4-4.5c-1.82 2.29-5.26 5.55-6.2 5.55h-.08s.15-.3.42-.6c1.4-1.5 5.14-7.94 5.44-11.16 0-.38 0-.49.19-.49.42 0 4.65 1.61 4.65 2.47 0 .3-.45.53-1.17.6-.38 0-.53 0-.79.42-.53.74-1.1 1.53-1.74 2.35h5.71a.69.69 0 0 0 .56-.3c1.82-2.5 2-2.58 2.27-2.58a.47.47 0 0 1 .23 0c1.1.41 3.48 2.47 3.48 3.29 0 .27-.19.45-.8.45z"/><path d="m257.36 23c0 3.59-4.23 6.81-8.2 6.81-2.46 0-4-1.46-4-3.89 0-2.06 1.51-5.1 1.89-5.1 0 0 .08.08.08.23a6.52 6.52 0 0 1 -.31 1.5 5.67 5.67 0 0 0 -.22 1.57 2.46 2.46 0 0 0 2.64 2.77c2.12 0 5.34-1.53 5.34-4.31 0-2.47-2.76-3-4.24-3-2.95 0-5.75 1.91-8.47 4 0 1.39 0 2.74.08 3.94v.33c0 1.65-.3 3.15-1.74 3.15-.57 0-1-.41-1.44-1.05a5.69 5.69 0 0 0 -3.06-1.83 6.42 6.42 0 0 1 -3.74 1.46c-.95 0-1.37-.49-1.37-1.13a3.3 3.3 0 0 1 2-2.66 2.19 2.19 0 0 1 .53.15 1.22 1.22 0 0 0 .45.12c.49 0 1.67-.42 6.35-3.34 0-.93 0-1.87 0-2.77 0-1.27 0-2.55-.07-3.78a10.74 10.74 0 0 1 -4.28 1.08c-3.25 0-3.59-2.06-3.59-3 0-.33.08-.44.23-.44a2.67 2.67 0 0 1 .64.22 8 8 0 0 0 2.65.45 9.46 9.46 0 0 0 4.2-1.05c-.31-3.75-.42-5.21-1.93-5.21-.84 0-1.17-.11-1.17-.37a2.3 2.3 0 0 1 2.15-1.54c.87 0 3.1.87 3.1 2.81a9 9 0 0 1 0 1 7.69 7.69 0 0 0 1.82.26h.6.23a1.09 1.09 0 0 1 1.17 1.2c0 1.39-1.32 2.4-3.93 3.71 0 2.06.07 4.23.11 6.33 2.88-1.65 6-3.15 9.19-3.15 4.12 0 6.39 1.95 6.39 4.5m-21.14 4.75a19.35 19.35 0 0 0 2.08.18c1 0 1.25-.26 1.29-.67.07-.79.11-1.57.15-2.4-1.21 1-2.42 2.06-3.52 2.89m5.44-17v1.16.68c.19-.11.34-.23.49-.3a.85.85 0 0 0 .42-.64c0-.26-.19-.52-.88-.9m18.84 2.44c0 1.12-.84 1.39-2.54 1.72a10 10 0 0 0 -3 .83 3 3 0 0 1 -.95.37.1.1 0 0 1 -.11-.11c0-.12.15-.34.6-.79a4 4 0 0 0 1.13-2.18c0-.49-.31-1-1.78-1a3.74 3.74 0 0 0 -2.38.82 2.88 2.88 0 0 1 -1.25.71c-.11 0-.15 0-.15-.11 0-.53 1.85-3.48 5.48-3.48 2.35 0 4.92 1.27 4.92 3.18"/><path d="m269.43 34.53c-.08 0-.12 0-.12-.07s.42-.45 1.48-1.05c3.51-2 10.39-8.2 10.39-16 0-3.45-1.4-5.81-3.17-5.81a4.15 4.15 0 0 0 -2.69 1.46 4.14 4.14 0 0 1 -2.8 1.5 3.34 3.34 0 0 1 -3.36-3.07c0-1.05.64-1.84.91-1.84s.41.3.6.79.68.64 1.25.64a6.88 6.88 0 0 0 2.31-.53 12.51 12.51 0 0 1 4.23-1c3.56 0 6.2 3.67 6.2 8.05a13.8 13.8 0 0 1 -1.17 5.4c-3.63 8.69-13.08 11.57-14.06 11.57m12-30.3c0 .79-.8 1.35-2.42 1.42a16 16 0 0 0 -5.35 1.31 3.38 3.38 0 0 1 -.83.27c-.08 0-.12 0-.12-.08s.19-.3.57-.64c.57-.52 1.36-1.12 1.78-1.53.23-.23.3-.34.3-.45s-.11-.23-.3-.3c-3.25-1.24-3.74-2.89-3.74-3.15s.07-.18.22-.18a4.14 4.14 0 0 1 1.36.48 13.13 13.13 0 0 0 4.28.53h1.06c2 0 3.21 1.24 3.21 2.32"/><path d="m291.19 29.51a4.41 4.41 0 1 1 4.42 4.39 4.4 4.4 0 0 1 -4.42-4.39m7.53 0a3.11 3.11 0 0 0 -3.11-3.07 3.09 3.09 0 1 0 3.11 3.07"/></g></svg>