<svg enable-background="new 0 0 244.8 28.4" viewBox="0 0 244.8 28.4" xmlns="http://www.w3.org/2000/svg"><g fill="#00bcb5"><path d="m3.3 23c0 .6.1 1.1.2 1.5.2.4.2.7.2 1 0 .8-.5 1.4-1.1 1.4-1.8 0-2.7-3.7-2.7-6.6 0-3 .9-5.9 1.7-9.1.2-1 .4-1.9.4-2.7.1-1.5-.3-2.9-1.5-4.5-.1-.1-.2-.2-.2-.3 0-.2.2-.3.5-.3 1.3 0 3.7 2.7 3.7 5.1 0 1.1-.5 2.1-1.1 3.5-.9 2.1-1.7 4.3-1.7 6.2 0 1.1.3 1.5.3 1.5.1 0 .2-.1.3-.3.9-2 3.2-6.3 3.6-6.3v.1c0 .2-.1.5-.3 1.1-.2.5-2.3 5.5-2.3 8.7m19.5 1c0 .8-.6 1.5-1.3 1.5-.4 0-1-.3-1.4-1-.6-1-1.4-1.8-2.3-2.3-.6 2.7-2.8 4.2-5 4.2-2.3 0-4.3-1.6-4.3-3.5 0-1.7 2.2-3.3 5.8-3.3.6 0 1.1 0 1.7.1 0-.4 0-.8 0-1.1 0-1.3-.1-4.1-.1-6.8h-.1c-.4.1-.8.1-1.2.1-4 0-5.2-3.2-5.2-3.4 0-.1 0-.1.1-.1.2 0 .4.1.8.2.8.3 1.7.7 2.4.9s1.3.2 1.9.2c.3 0 .5 0 .8-.1.1 0 .3 0 .4-.1v-1.9c0-2.5-.1-2.8-1.5-3.2-.3-.1-.5-.1-.5-.3s.7-1.2 1.7-1.2c.9 0 2.6 1.1 2.6 2.5 0 .3-.1.7-.1 1.1 1.3.4 2.8.6 2.8.6.6.1 1 .5 1 1.1 0 .7-.4 2.1-4.2 3.1v1.4c0 1.2.1 3.6.4 7.4 2.5.8 4.8 2.4 4.8 3.9m-9.7-3.1c-2.3 0-3.5 1-3.5 1.7 0 1.3 1.9 1.6 2.6 1.6 1.7 0 3.3-1 3.6-2.8-.7-.3-1.7-.5-2.7-.5m6.3-12.9c0-.1-.1-.5-1.4-1.2v.2c-.1.7-.2 1.4-.2 2.1.1 0 1.6-.5 1.6-1.1"/><path d="m39 9.1-.2.4c-1.6 4.3-2.8 8.6-3.8 13-.2 1.1-.5 2.3-1.5 3.2-.3.3-.7.4-1 .4-.8 0-1.2-1.1-1.2-1.8 0-.9.4-1.6 1-2.6 1-1.9 3.2-7.5 4.7-11.8l.1-.2c-1.1.1-1.1.1-1.6.1-1.7 0-4.4-1-4.4-3.2 0-.2.1-.3.2-.3s.3.2.6.3c1 .5 2.1 1 3.4 1 .6 0 1.2-.1 2.3-.3.1-.6.1-1.1.1-1.6 0-1-.2-1.9-.8-1.9-.5 0-.8-.1-.8-.4s.7-1.2 1.6-1.2 2.3.8 2.3 2.8c0 .4-.1.8-.2 1.3.7-.2 1-.9 1.7-1.1h.4c.6 0 1 .3 1 .8 0 1.7-3.5 2.9-3.9 3.1m13.5 15.3c0 1.1-1.7 1.7-3.6 1.7-3.8 0-7.1-2.1-7.1-4.5 0-1.3 1-2.3 1.3-2.3.1 0 .1.1.1.2 0 .2-.1.6-.2.8s-.1.3-.1.4c0 1.2 2.2 2.4 4.7 2.4h.3c.6 0 1.1-.2 2-.2 1.6.1 2.6.8 2.6 1.5m.8-14.2c0 .5-.4 1-1.2 1.1-1.7.3-2.8.5-4.7 1.9-.4.3-.6.4-.7.4s-.1 0-.1-.1.1-.3.3-.6c1.6-2 1.9-2.5 1.9-2.8 0-.5-1.3-1-2.1-1-.1 0-.2 0-.4 0-.6.1-1 .2-1.2.2-.1 0-.2 0-.2-.1 0 0 .8-1.5 3.4-1.5s5 1.4 5 2.5"/><path d="m66.2 27.9c-.3 0-.5 0-.5-.1s.4-.2 1.1-.4c4.9-1.2 8.1-4.5 8.1-7.1 0-1.7-1.2-3.3-3.2-3.3-2.1 0-3.4 1.9-4.9 4.6-.5.8-1 1.1-1.5 1.1-.4 0-3-.5-3-5 0-1.5.2-3.3.5-4.7.1-.7.4-2 .4-2.9 0-.1 0-.2 0-.3 0-.2 0-.4 0-.6 0-1.5.7-2.5 2.2-3.4.6-.3 1.1-.6 1.7-1 .2-.1.5-.4.5-.8 0-.2 0-.3-.2-.6-.6-1.2-.9-1.7-.9-1.9 0-.1.1-.2.2-.2 1 0 5.1 2.1 5.1 4.2 0 .3-.1 1.5-1.4 1.5-.4 0-.9-.1-1.5-.3-.8-.3-1.7-.4-2.3-.4-1.3 0-2 .7-2 1.7 0 .3.1.6.2 1 .2.8.3 1.4.3 1.9 0 .7-.2 1.4-.4 2.5-.2.8-.4 2.6-.4 3.9 0 1.9.6 2.1.9 2.1.2 0 .5-.1.8-.3.7-.5 1.5-1.2 3-2.1 1.1-.7 2.4-1 3.5-1 2.5 0 5.2 1.7 5.2 4.5 0 1.5-.7 3.1-2.3 4.5-2.5 2.1-7.2 2.9-9.2 2.9"/><path d="m94.4 20.2c0 .2 0 1 .2 1.9 0 .2.1.3.1.5 0 .9-.6 1.5-1.9 1.5-1 0-7.1-1.1-7.1-10.6 0-1 .1-1.9.1-2.9 0-.3 0-.7 0-1.1 0-.7 0-1.3-.1-1.8-.1-.3-.1-.6-.1-.7 0-.2 0-.2.2-.2s2.7.8 2.7 3.6c0 .5-.1.9-.2 1.4-.2 1.1-.4 2.4-.4 3.7 0 4.8 3.3 5.3 3.5 5.3.5 0 .8-.3 1-.6.6-1 1.3-2.7 1.9-3.8.4-.9.7-1.3.8-1.3 0 0 .1.1.1.2 0 .2-.1.7-.2 1.4-.5 1-.6 2.3-.6 3.5m13.1-4.3c0 1.4-.8 2-1.6 2-.7 0-1.4-.5-1.5-1.6-.2-3.1-2.5-5.6-4.6-6.1-.8-.2-1.3-.4-1.3-.5s.2-.2.8-.2c5.6 0 8.2 3.7 8.2 6.4"/><path d="m134.5 6c0 .7-.6 1.4-1.9 1.4-.2 0-.5 0-.7-.1-.6-.1-1.1-.1-1.7-.1-2 0-3.8.5-4.6.9-1.9 1-3.3 5.2-3.3 8.9 0 4.6 2.3 6.5 4.7 6.5.5 0 1.1-.1 1.6-.3.3-.1.6-.2 1-.2 1.1 0 1.8.7 1.8 1.4 0 1.7-2.7 2.1-4.1 2.1-1.3 0-6.7-.4-6.7-8 0-3.5 1.1-7.4 2.9-9.6.1-.2.2-.3.2-.3-.2 0-2.2.7-6.2 2.8-.6.3-1.3.4-2 .4-1.1 0-3.2-.5-3.2-1.9 0-.3.1-.4.3-.4s.4.1.6.1c.4.1.8.1 1.3.1.6 0 1.4-.1 2.2-.4 2.8-1 7-3.3 11.4-4.6.9-.2 1.3-.6 2.6-.7h.2c2.9.2 3.6 1.3 3.6 2"/><path d="m141.2 26.7c-.9-1.7-2.3-3-3.6-4.1-.3-.2-.6-.4-.6-.5s.1-.1.3-.1c1.2 0 7.2 1 7.2 4 0 1-.8 1.8-1.6 1.8-.7.1-1.3-.2-1.7-1.1"/><path d="m168.9 17.6c1.9 3.5 6.4 6.9 13 7.3.1 0 .2 0 .2.1 0 .3-3 1.3-3.9 2.3-.2.2-.4.3-.6.3-1.8 0-7.5-3.5-9-9.5-2.4 9.7-13.9 9.9-14.4 9.9-.3 0-.6 0-.6-.1s.2-.2.7-.2c5.5-1 10.5-4.8 11.7-10h-1.6c-1.7 0-5.5.1-8.1.3-.6 0-1.5-1.2-1.5-1.5 3 .4 8.1.5 9.8.5h1.6c.1-.5.1-1 .1-1.6 0-.7 0-1.5-.1-2.2-1.7.1-3.4.1-4.9.1-2.9 0-4.3-.1-4.3-.4 0-.1.2-.2.8-.2 3.7-.2 12.9-1.3 15.5-2.9l.2-.1c-.1-.1-.2-.3-.2-.4-.3-.7-1-1.8-1.6-2.4-.2-.2-.3-.2-.3-.3s.1-.1.3-.1c1 0 4.4.5 4.4 2.5 0 .8-.6 1.4-1.3 1.5.6.6 1.5 1.5 1.5 1.9 0 .2-.2.3-.5.3-.2 0-.5 0-.7-.1-.1 0-.2-.1-.3-.1s-.2 0-.2 0c-1.4.2-3.1.4-5 .5.2 0 .3.1.4.1.3.1.4.2.4.3 0 .2-.2.3-.5.5-.4.2-.4.3-.5.8-.1.7-.1 1.4-.2 1.8v.2.2h6.4c.2 0 .4-.1.5-.3 1.3-1.9 1.6-2.3 2-2.3.7 0 3.2 2.1 3.2 2.9 0 .2-.1.4-.6.4zm-9.1-12c-2.7 3.2-5.2 4.9-5.7 4.9 0 0-.1 0-.1-.1s.1-.3.4-.6c1.5-1.7 4.6-6.4 5.1-9.6 0-.2 0-.3.1-.3.3 0 3.9 1.2 3.9 2.1 0 .2-.4.4-1.1.5-.3 0-.5.1-.7.5-.4.6-.8 1.2-1.3 1.8h2.6c.2 0 .3-.1.4-.2.8-1.3 1.2-1.9 1.6-1.9.6 0 2.6 1.8 2.6 2.5 0 .2-.1.4-.6.4zm1.7 3.7c-.3-.8-1-1.9-1.7-2.6-.2-.1-.3-.2-.3-.3s.1-.1.3-.1c.6 0 4.5.4 4.5 2.6 0 .9-.7 1.5-1.5 1.5-.4.1-1-.2-1.3-1.1m8.5-3.7c-1.5 1.9-4.3 4.6-5.1 4.6h-.1c0-.1.1-.2.3-.5 1.1-1.2 4.2-6.5 4.4-9.2 0-.3 0-.4.2-.4.3 0 3.8 1.3 3.8 2 0 .2-.4.4-1 .5-.3 0-.4 0-.6.3-.4.6-.9 1.3-1.4 1.9h4.7c.2 0 .4-.1.5-.2 1.5-2.1 1.6-2.1 1.9-2.1h.2c.9.3 2.8 2 2.8 2.7 0 .2-.2.4-.6.4z"/><path d="m210 18.9c0 3-3.5 5.6-6.7 5.6-2 0-3.3-1.2-3.3-3.2 0-1.7 1.2-4.2 1.5-4.2 0 0 .1.1.1.2 0 .2-.1.6-.2 1.2-.1.4-.2.9-.2 1.3 0 1.3.6 2.3 2.2 2.3 1.7 0 4.4-1.3 4.4-3.5 0-2-2.3-2.5-3.5-2.5-2.4 0-4.7 1.6-6.9 3.3 0 1.1 0 2.3.1 3.2v.4c0 1.4-.2 2.6-1.4 2.6-.5 0-.8-.3-1.2-.9-.4-.7-1.4-1.2-2.5-1.5-1.3.9-2.2 1.2-3.1 1.2-.8 0-1.1-.4-1.1-.9 0-1 1.1-2.2 1.6-2.2.1 0 .2.1.4.1.1 0 .2.1.4.1.4 0 1.4-.3 5.2-2.7 0-.8 0-1.5 0-2.3 0-1 0-2.1-.1-3.1-1.2.5-2.3.9-3.5.9-2.7 0-2.9-1.7-2.9-2.4 0-.3.1-.4.2-.4s.3.1.5.2c.4.2 1.2.4 2.2.4 1.2 0 1.9-.2 3.4-.9-.2-3.1-.3-4.3-1.6-4.3-.7 0-1-.1-1-.3 0-.3.7-1.3 1.8-1.3.7 0 2.5.7 2.5 2.3v.8c.5.1 1 .2 1.5.2h.5.2c.6 0 1 .4 1 1 0 1.1-1.1 2-3.2 3.1 0 1.7.1 3.5.1 5.2 2.3-1.4 4.9-2.6 7.5-2.6 3.2-.1 5.1 1.5 5.1 3.6m-17.2 3.9c.7.1 1.3.2 1.7.2.8 0 1-.2 1-.6.1-.6.1-1.3.1-2-.9.9-1.9 1.8-2.8 2.4m4.5-14v1 .6c.2-.1.3-.2.4-.2.2-.2.3-.3.3-.5 0-.4-.2-.6-.7-.9m15.3 2c0 .9-.7 1.1-2.1 1.4-.7.1-1.7.3-2.4.7-.3.2-.6.3-.8.3-.1 0-.1 0-.1-.1s.1-.3.5-.6c.3-.3.9-1.2.9-1.8 0-.4-.2-.8-1.4-.8-.7 0-1.4.2-1.9.7-.5.4-.9.6-1 .6s-.1 0-.1-.1c0-.4 1.5-2.9 4.5-2.9 1.8 0 3.9 1 3.9 2.6"/><path d="m219.8 28.4c-.1-.2.2-.4 1.1-.9 2.9-1.7 8.5-6.8 8.5-13.2 0-2.8-1.1-4.8-2.6-4.8-.6 0-1.4.4-2.2 1.2-.6.6-1.4 1.2-2.3 1.2-1.4 0-2.7-1.1-2.7-2.5 0-.9.5-1.5.7-1.5s.3.2.5.6.6.5 1 .5c.6 0 1.4-.2 1.9-.4 1-.4 2.2-.8 3.5-.8 2.9 0 5.1 3 5.1 6.6 0 1.5-.3 2.9-1 4.4-2.9 7.3-10.7 9.6-11.5 9.6m9.8-24.9c0 .6-.6 1.1-2 1.2-1.3 0-2.7.4-4.4 1.1-.2.1-.5.2-.6.2s-.1 0-.1-.1.2-.2.5-.5c.5-.4 1.1-.9 1.4-1.3.2-.2.2-.3.2-.4s-.1-.2-.2-.2c-2.7-1-3.1-2.4-3.1-2.6 0-.1.1-.2.2-.2.2 0 .6.2 1.1.4.7.3 2.3.4 3.5.4h.9c1.7.1 2.6 1.1 2.6 2"/><path d="m237.6 24.3c0-2 1.6-3.6 3.6-3.6s3.6 1.6 3.6 3.6-1.6 3.6-3.6 3.6-3.6-1.6-3.6-3.6m6.1 0c0-1.4-1.1-2.5-2.5-2.5s-2.6 1.1-2.6 2.5 1.2 2.6 2.6 2.6 2.5-1.2 2.5-2.6"/></g></svg>