<svg viewBox="0 0 688.45 80" xmlns="http://www.w3.org/2000/svg"><path d="m9.37 64.55a11.85 11.85 0 0 0 .7 4.17 7.49 7.49 0 0 1 .61 2.87c0 2.34-1.4 3.9-3.21 3.9-5.12 0-7.47-10.33-7.47-18.49 0-8.5 2.43-16.57 4.77-25.59a30.8 30.8 0 0 0 1.23-7.73c0-3.9-1.13-7.8-4.51-12.32-.35-.43-.7-.78-.7-1 0-.43.61-.78 1.39-.78 3.65 0 10.5 7.64 10.5 14.32 0 3-1.3 5.81-3 9.72-2.56 5.77-4.91 12.1-4.91 17.49 0 3 .79 4.33 1 4.33s.43-.25.78-.95c2.6-5.64 8.94-17.62 10.06-17.62.09 0 .09.09.09.27a9.6 9.6 0 0 1 -.95 3c-.52 1.39-6.34 15.53-6.34 24.38m54.76 3c0 2.25-1.57 4.33-3.56 4.33-1.22 0-2.69-.86-3.91-3a21.5 21.5 0 0 0 -6.33-6.5 14.52 14.52 0 0 1 -14.18 11.75c-6.6 0-12.16-4.6-12.16-10 0-4.86 6.08-9.37 16.23-9.37a30.69 30.69 0 0 1 4.87.35c.08-1.22.08-2.26.08-3.21-.08-3.65-.26-11.46-.35-19.18h-.26a23.86 23.86 0 0 1 -3.47.35c-11.28 0-14.58-8.94-14.58-9.46 0-.26.09-.35.35-.35a14 14 0 0 1 2.34.7c2.26.78 4.86 2.08 6.69 2.51a24.33 24.33 0 0 0 5.46.7 19.28 19.28 0 0 0 2.26-.14c.34-.08.78-.08 1.13-.17l-.09-5.29c-.09-7.12-.35-8-4.16-8.94-.79-.17-1.31-.35-1.31-.87 0-.69 2-3.38 4.77-3.38 2.52 0 7.21 3 7.21 6.94a22.35 22.35 0 0 1 -.35 3 57.78 57.78 0 0 0 8 1.73 2.85 2.85 0 0 1 2.69 3c0 2.08-1.21 5.9-11.89 8.59 0 1.3-.08 2.6-.08 3.82 0 3.3.17 10.23 1.13 20.91 7.11 2.26 13.45 6.77 13.45 11.11m-27.34-8.6c-6.42 0-9.8 2.7-9.8 4.78 0 3.64 5.29 4.42 7.37 4.42 4.78 0 9.2-2.78 10.24-7.89a24.52 24.52 0 0 0 -7.81-1.31m17.7-36.35c0-.26-.26-1.48-3.81-3.3l-.09.52c-.35 2-.44 3.9-.61 5.82.26-.09 4.51-1.31 4.51-3"/><path d="m109.6 25.59-.44 1.13a257.84 257.84 0 0 0 -10.58 36.53c-.7 3-1.3 6.51-4.08 8.94a4.14 4.14 0 0 1 -2.78 1.22c-2.34 0-3.29-3.13-3.29-5.12 0-2.43 1.12-4.43 2.68-7.38 2.87-5.46 9-21.17 13.11-33.32l.17-.52a17.17 17.17 0 0 1 -4.6.61c-4.77 0-12.32-2.78-12.32-9 0-.53.17-.79.43-.79a7.78 7.78 0 0 1 1.74.79c2.87 1.38 5.9 2.77 9.63 2.77a27.52 27.52 0 0 0 6.51-.87 27.74 27.74 0 0 0 .35-4.51c0-3-.61-5.29-2.35-5.38-1.39-.09-2.34-.35-2.34-1 0-.87 1.91-3.47 4.43-3.47 2.69 0 6.5 2.34 6.5 7.81a18.81 18.81 0 0 1 -.43 3.64c2-.6 3-2.6 4.86-3a4.07 4.07 0 0 1 1-.09c1.65 0 2.86.78 2.86 2.34 0 4.86-10 8.33-11.1 8.76m37.92 43c0 3.21-4.86 4.68-10.24 4.68-10.76 0-20-6-20-12.58 0-3.64 3-6.6 3.56-6.6.26 0 .35.27.35.7a5.85 5.85 0 0 1 -.61 2.26 3.1 3.1 0 0 0 -.26 1.21c0 3.38 6.07 6.86 13.1 6.86h.87a55.16 55.16 0 0 1 5.64-.61c5 .09 7.64 2.08 7.64 4.08m2.47-39.96c0 1.39-1.13 2.69-3.47 3-4.68.78-7.81 1.47-13.1 5.46a4.88 4.88 0 0 1 -2.08 1.13c-.18 0-.26-.08-.26-.17a3.29 3.29 0 0 1 .86-1.65c4.43-5.73 5.3-6.94 5.3-8 0-1.48-3.65-3-6-3a4.07 4.07 0 0 0 -1 .09 28.8 28.8 0 0 1 -3.47.7c-.35 0-.44-.09-.44-.26 0 0 2.35-4.34 9.64-4.34s14.02 3.91 14.02 7.04"/><path d="m186.22 78.35c-1 0-1.48-.09-1.48-.26s1-.69 3.13-1.21c13.88-3.48 22.64-12.76 22.64-20a9 9 0 0 0 -9.11-9.2c-5.89 0-9.45 5.29-13.79 12.84-1.3 2.17-2.69 3.21-4.25 3.21-1.13 0-8.42-1.3-8.42-14a81.3 81.3 0 0 1 1.39-13.19 53.62 53.62 0 0 0 1.13-8.24c0-.34-.09-.69-.09-.95a12.4 12.4 0 0 1 -.09-1.82c0-4.34 2-7 6.16-9.55 1.56-1 3.21-1.73 4.77-2.78a2.63 2.63 0 0 0 1.31-2.17 3 3 0 0 0 -.44-1.56c-1.82-3.38-2.43-4.77-2.43-5.38 0-.35.18-.43.52-.43 2.78 0 14.23 5.81 14.23 11.8 0 .78-.26 4.16-3.81 4.16a13.21 13.21 0 0 1 -4.08-.86 22.28 22.28 0 0 0 -6.6-1.22c-3.73 0-5.55 1.91-5.55 4.78a9.24 9.24 0 0 0 .52 2.77 17.72 17.72 0 0 1 1 5.38 37.89 37.89 0 0 1 -1 7 70 70 0 0 0 -1.13 10.85c0 5.46 1.83 5.81 2.44 5.81a4.15 4.15 0 0 0 2.25-.95c2.08-1.39 4.34-3.39 8.42-5.91a19.2 19.2 0 0 1 10-2.94c7 0 14.66 4.85 14.66 12.75 0 4.08-2.08 8.59-6.42 12.67-6.85 6.42-20.13 8.5-25.77 8.5"/><path d="m265.36 56.83a29.14 29.14 0 0 0 .52 5.38 6.53 6.53 0 0 1 .17 1.3c0 2.43-1.82 4.08-5.21 4.08-2.77 0-19.87-3.21-19.87-29.93 0-2.69.18-5.47.35-8.16.09-.95.09-2 .09-3a39.38 39.38 0 0 0 -.26-4.95 10.74 10.74 0 0 1 -.27-2.07c0-.44.09-.7.53-.7a10.06 10.06 0 0 1 7.59 10.02 17.67 17.67 0 0 1 -.44 3.82 54.11 54.11 0 0 0 -1.25 10.38c0 13.36 9.2 14.93 9.72 14.93a3.18 3.18 0 0 0 2.68-1.57c1.65-3 3.65-7.63 5.21-10.76 1.22-2.43 1.91-3.56 2.17-3.56.09 0 .17.18.17.44a23.66 23.66 0 0 1 -.69 3.9 49.49 49.49 0 0 0 -1.21 10.5m36.87-12c0 3.82-2.34 5.73-4.51 5.73-2 0-3.9-1.48-4.16-4.6-.7-8.59-6.94-15.8-12.84-17.27-2.26-.61-3.65-1.13-3.65-1.56 0-.26.69-.44 2.26-.44 15.7 0 22.9 10.5 22.9 18.14"/><path d="m378.34 16.92c0 2-1.83 3.82-5.47 3.82a16.47 16.47 0 0 1 -2-.18 28.35 28.35 0 0 0 -4.68-.34c-5.55 0-10.67 1.3-12.84 2.51-5.21 2.95-9.35 14.75-9.35 25.17 0 12.84 6.34 18.22 13.19 18.22a14.62 14.62 0 0 0 4.6-.78 7.57 7.57 0 0 1 2.69-.44c3 0 5 1.91 5 4 0 4.77-7.73 5.82-11.46 5.82-3.56 0-18.74-1.13-18.74-22.48 0-9.72 3.21-20.73 8.07-26.89.34-.44.69-.79.69-1h-.04c-.44 0-6.25 2.08-17.45 8a11.57 11.57 0 0 1 -5.55 1.23c-3.21 0-8.94-1.39-8.94-5.47 0-.87.27-1.13.78-1.13s1.14.26 1.83.35a22.73 22.73 0 0 0 3.56.35 15.75 15.75 0 0 0 6.16-1.22c7.81-2.95 19.61-9.28 31.93-12.84 2.51-.69 3.73-1.82 7.2-1.91h.69c8.16 0 10.16 3.21 10.16 5.21"/><path d="m397.05 75.23a34.4 34.4 0 0 0 -10.25-11.45c-.86-.7-1.56-1.13-1.56-1.4s.27-.17.78-.17c3.39 0 20.14 2.78 20.14 11.37a4.82 4.82 0 0 1 -4.52 5c-1.65 0-3.38-1-4.59-3.3"/><path d="m474.93 49.46c5.38 9.8 18.14 19.54 36.45 20.54.34 0 .52.09.52.18 0 .78-8.42 3.64-11 6.5a2.25 2.25 0 0 1 -1.65.79c-5 0-21.09-9.72-25.33-26.73-6.77 27.42-39.14 27.76-40.44 27.76-1 0-1.56-.08-1.56-.34s.6-.44 2-.69c15.53-2.87 29.59-13.37 32.8-28h-4.51c-4.78 0-15.53.26-22.91.95h-.09c-1.64 0-4.25-3.3-4.25-4.34 8.51 1 22.65 1.3 27.6 1.3h4.44a38.51 38.51 0 0 0 .35-4.51 51.8 51.8 0 0 0 -.26-6.25c-4.69.18-9.46.35-13.89.35-8.16 0-12.06-.26-12.06-1 0-.26.61-.52 2.17-.61 10.5-.6 36.19-3.64 43.56-8.07l.52-.34a5.58 5.58 0 0 1 -.69-1.22 25.13 25.13 0 0 0 -4.6-6.85c-.44-.43-.79-.7-.79-.87s.26-.26 1-.26c2.95 0 12.32 1.39 12.32 7a4.14 4.14 0 0 1 -3.55 4.08c1.73 1.73 4.07 4.07 4.07 5.37 0 .7-.61 1-1.47 1a6.61 6.61 0 0 1 -2.09-.35 3.29 3.29 0 0 0 -.95-.17c-.26 0-.52.09-.69.09-3.91.6-8.85 1-14.15 1.38.43.09.78.27 1.13.35.78.26 1 .61 1 1s-.52.87-1.39 1.4c-1 .51-1.21.78-1.39 2.34-.17 1.91-.34 3.9-.51 5.12v.52a1.21 1.21 0 0 1 -.09.6h18a1.9 1.9 0 0 0 1.47-.78c3.73-5.2 4.6-6.33 5.56-6.33 2.08 0 8.93 6 8.93 8.16 0 .52-.34 1-1.82 1zm-25.59-33.58c-7.55 8.94-14.75 13.79-16 13.79a.18.18 0 0 1 -.17-.17c0-.26.34-.78 1.13-1.65 4.16-4.68 12.92-18 14.31-27.07.09-.52 0-.78.26-.78.87 0 10.85 3.38 10.85 6 0 .69-1.13 1.12-3 1.3-.95.08-1.3.34-2 1.47a56.4 56.4 0 0 1 -3.65 5h7.38a1.33 1.33 0 0 0 1.12-.69c2.17-3.54 3.43-5.36 4.43-5.36 1.82 0 7.2 5 7.2 7.12 0 .51-.35 1-1.65 1zm4.86 10.41a23.73 23.73 0 0 0 -4.69-7.29c-.43-.35-.78-.69-.78-.87s.26-.26.95-.26c1.65 0 12.59 1 12.59 7.38a4.25 4.25 0 0 1 -4.08 4.34c-1.48 0-3-1-4-3.3m23.86-10.41c-4.15 5.29-12.05 12.84-14.22 12.84-.09 0-.18 0-.18-.09 0-.26.35-.69 1-1.39 3.21-3.47 11.8-18.39 12.5-25.85.08-.87.08-1.13.43-1.13.91 0 10.63 3.74 10.63 5.74 0 .69-1 1.21-2.69 1.38a1.89 1.89 0 0 0 -1.82 1c-1.22 1.73-2.52 3.56-4 5.46h13.1a1.63 1.63 0 0 0 1.3-.69c4.17-5.81 4.51-6 5.21-6a1.08 1.08 0 0 1 .52.09c2.51 1 8 5.73 8 7.64 0 .6-.44 1-1.82 1z"/><path d="m590.6 53.28c0 8.32-9.71 15.79-18.82 15.79-5.64 0-9.29-3.39-9.29-9 0-4.77 3.47-11.8 4.34-11.8.09 0 .17.18.17.52a14.94 14.94 0 0 1 -.69 3.47 13.14 13.14 0 0 0 -.52 3.65c0 3.55 1.73 6.42 6.07 6.42 4.86 0 12.24-3.56 12.24-10 0-5.73-6.34-6.94-9.72-6.94-6.77 0-13.19 4.42-19.44 9.37.09 3.21.09 6.33.18 9.11v.78c0 3.82-.7 7.29-4 7.29-1.3 0-2.34-1-3.3-2.43-1.21-1.91-4-3.3-7-4.25-3.56 2.52-6.08 3.38-8.59 3.38-2.17 0-3.13-1.13-3.13-2.6 0-2.78 3.21-6.16 4.52-6.16a4.25 4.25 0 0 1 1.21.35 3.21 3.21 0 0 0 1 .26c1.13 0 3.82-1 14.58-7.73 0-2.17.09-4.33.09-6.42 0-2.95-.09-5.9-.18-8.76-3.47 1.47-6.33 2.52-9.8 2.52-7.47 0-8.25-4.77-8.25-6.86 0-.78.18-1 .53-1a6.08 6.08 0 0 1 1.47.52 18.38 18.38 0 0 0 6.08 1c3.29 0 5.38-.61 9.63-2.43-.69-8.68-1-12.06-4.43-12.06-1.91 0-2.69-.26-2.69-.87 0-.87 2-3.55 4.94-3.55 2 0 7.12 2 7.12 6.5 0 .61 0 1.39-.08 2.26a17.06 17.06 0 0 0 4.16.6c.43 0 .87-.08 1.39-.08h.52a2.53 2.53 0 0 1 2.69 2.78c0 3.21-3 5.55-9 8.59 0 4.77.18 9.8.27 14.66 6.59-3.82 13.71-7.29 21.08-7.29 9.46 0 14.66 4.51 14.66 10.42m-48.34 10.92a43.25 43.25 0 0 0 4.77.43c2.27 0 2.87-.6 3-1.56.17-1.82.25-3.65.34-5.55-2.77 2.34-5.55 4.77-8.07 6.68m12.5-39.48a24.37 24.37 0 0 0 -.09 2.69v1.58c.44-.26.78-.52 1.13-.7a1.91 1.91 0 0 0 1-1.47c0-.61-.43-1.21-2-2.08m43.15 5.62c0 2.6-1.91 3.21-5.81 4-1.92.35-4.86.78-6.86 1.91a6.6 6.6 0 0 1 -2.17.86c-.17 0-.26-.08-.26-.25s.35-.78 1.39-1.83c.87-.87 2.6-3.29 2.6-5 0-1.13-.69-2.26-4.07-2.26a8.54 8.54 0 0 0 -5.47 1.92 6.71 6.71 0 0 1 -2.86 1.64c-.27 0-.35-.08-.35-.26 0-1.22 4.25-8.07 12.58-8.07 5.38 0 11.28 3 11.28 7.38"/><path d="m618.29 80c-.18 0-.26-.08-.26-.17 0-.26 1-1 3.38-2.43 8.07-4.69 23.86-19 23.86-37.05 0-8-3.21-13.45-7.29-13.45-1.82 0-3.9 1.12-6.16 3.38-1.73 1.73-3.82 3.47-6.42 3.47-3.91 0-7.72-3.21-7.72-7.11 0-2.43 1.47-4.26 2.08-4.26s1 .7 1.39 1.83 1.56 1.47 2.86 1.47a16 16 0 0 0 5.3-1.21c2.77-1 6.24-2.35 9.71-2.35 8.16 0 14.24 8.51 14.24 18.66a32.44 32.44 0 0 1 -2.69 12.41c-8.34 20.13-30.03 26.81-32.28 26.81m27.59-70.2c0 1.82-1.82 3.13-5.56 3.3-3.55.08-7.63 1.22-12.32 3.12a7.26 7.26 0 0 1 -1.9.61c-.18 0-.27-.08-.27-.17 0-.26.44-.7 1.31-1.48 1.3-1.21 3.12-2.6 4.07-3.56.53-.51.7-.78.7-1s-.26-.52-.7-.69c-7.46-2.86-8.59-6.68-8.59-7.29 0-.35.18-.43.53-.43a9.8 9.8 0 0 1 3.12 1.12c2.08 1 6.51 1.22 9.81 1.22.86 0 1.64-.09 2.43-.09 4.68 0 7.37 2.87 7.37 5.38"/><path d="m668.23 68.37a10.11 10.11 0 1 1 10.16 10.16 10.15 10.15 0 0 1 -10.16-10.16m17.27 0a7.16 7.16 0 0 0 -14.31 0 7.16 7.16 0 1 0 14.31 0"/></svg>