<svg viewBox="0 0 634.73 37.55" xmlns="http://www.w3.org/2000/svg"><g fill="#00bcb5"><path d="m8.13 13.72a57.53 57.53 0 0 1 -1.13 10.8 29.93 29.93 0 0 0 4.52-6.8 31.27 31.27 0 0 0 1.36-3.56c4.2 1.44 4.88 1.76 4.88 2.32s-.36.76-1.88 1c-.4.56-.84 1.12-1.24 1.6h6.6a20.35 20.35 0 0 0 .88-2.16 12.36 12.36 0 0 0 .56-2.68c3.84 1.08 4.88 1.52 4.88 2.08s-.4.64-1.92.68a11.06 11.06 0 0 1 -2.64 2.08h6c2-2.16 2.36-2.4 2.68-2.4s.76.24 2.52 1.64c.84.68 1.08 1 1.08 1.28s-.16.4-.6.4h-10.27v3.92h4.12c1.52-1.64 2-2 2.28-2s.84.32 2.32 1.36c.68.52 1 .84 1 1.12s-.12.4-.52.4h-9.2v3.95h4.28c1.56-1.67 2-2 2.32-2s.84.33 2.32 1.45c.64.47 1 .8 1 1.07s-.12.4-.52.4h-9.4v4.33h5.08c1.92-1.92 2.4-2.24 2.68-2.24s.84.32 2.64 1.6c.8.56 1.12.88 1.12 1.16s-.12.4-.52.4h-21.41v.56c0 1.16-.6 1.56-2.24 1.56-1 0-1.44-.32-1.44-1.16 0-1.08.16-2.2.16-6.68 0-2 0-4 .08-6.11a32.12 32.12 0 0 1 -3.44 2.24c-.12 0-.16 0-.24 0a22 22 0 0 1 -6.54 11.14c-.16.12-.4-.2-.32-.36a32.45 32.45 0 0 0 3.55-11.47 104.3 104.3 0 0 0 .69-13.84 51.33 51.33 0 0 0 -.26-5.8 39.1 39.1 0 0 1 4.76 2.2h20.53c1.52-1.64 1.84-1.88 2.16-1.88s.76.24 2.2 1.36c.64.48.88.76.88 1.08 0 .48-.24.76-1.12 1.2v1.4c0 1.32.16 2.56.16 3.16 0 1.08-.8 1.68-2.32 1.68-1.16 0-1.52-.28-1.52-1.32v-.12zm21.6-11.08c2.12-2.32 2.6-2.64 2.88-2.64s.84.32 2.92 1.84c1 .72 1.28 1 1.28 1.32s-.12.4-.52.4h-31.48a23.79 23.79 0 0 0 -3.11.24l-.44-1.48a19.48 19.48 0 0 0 3.47.32zm0 5.44h-21.56v1.68 3h21.6zm-8.8 15.84v-3.92h-6.93v3.92zm-7 4.87h7v-3.95h-6.93zm.07 5.21h7v-4.29h-7z"/><path d="m48.25 21.88a34.76 34.76 0 0 1 -.68 4.12c-1 4.75-3 7.55-6.39 10.63-.17.12-.48-.16-.4-.32a27.19 27.19 0 0 0 3.44-10.43 115.28 115.28 0 0 0 .63-14.48c0-4.88-.12-7.64-.28-10.12a19.05 19.05 0 0 1 4.52 2.24h21.16c1.64-1.64 2-1.88 2.28-1.88s.72.24 2.2 1.4c.68.6.92.88.92 1.2s-.12.48-1.08 1.16v4.4c0 18.44.16 19.87.16 22.39 0 2-.48 2.56-1.44 3.28a5.78 5.78 0 0 1 -3.08 1c-.68 0-.8-.36-.92-1.08-.32-1.8-1.48-2.2-4.52-3-.2 0-.2-.48 0-.48 1.88.16 3.48.2 5.2.2.56 0 .68-.16.68-.68v-9.55h-9.28c0 5.12.08 9.91.08 12 0 1.2-.68 1.64-2.32 1.64-1.28 0-1.76-.44-1.76-1.6 0-.56.12-2.36.12-5.91v-6.13zm.48-9c0 2.68-.16 5.36-.4 8h9.16v-8zm8.76-.88v-7.52h-8.72v1.88 5.64zm13.16-7.52h-9.28v7.52h9.28zm0 8.44h-9.28v8h9.28z"/><path d="m99.49 11.28a16.3 16.3 0 0 1 -.88 4.24 28.73 28.73 0 0 1 -2.52 5.76 32.88 32.88 0 0 1 -4.44 6.72 4.38 4.38 0 0 1 -3.32 1.63 4 4 0 0 1 -3-1.55c-1.45-1.6-2.2-3.64-2.2-7.28a12.59 12.59 0 0 1 1.71-6.08 15.54 15.54 0 0 1 5.4-5.6 17.92 17.92 0 0 1 9.68-2.6 15.31 15.31 0 0 1 9.92 3.12 12.26 12.26 0 0 1 4.68 10.16 10.87 10.87 0 0 1 -3.71 8.2 17.58 17.58 0 0 1 -5.92 3.55 28.46 28.46 0 0 1 -8.2 1.52c-.6 0-.88-.08-.88-.4s.24-.4.76-.52a19.92 19.92 0 0 0 10.28-5.23c2.48-2.56 3.6-5.08 3.6-9.28a8.74 8.74 0 0 0 -3.52-7.52 12.62 12.62 0 0 0 -6.4-2.12 17.93 17.93 0 0 0 -2.53 0 5.49 5.49 0 0 1 1.49 3.28zm-9.72.16a12.28 12.28 0 0 0 -3.4 4.92 10.41 10.41 0 0 0 -.68 3.8 8 8 0 0 0 1 4.32 2.58 2.58 0 0 0 1.76 1.31c.64 0 1.24-.39 2.76-2.55a48.58 48.58 0 0 0 5.36-9.8 9.28 9.28 0 0 0 .84-3.4 2 2 0 0 0 -.72-1.8 13.47 13.47 0 0 0 -6.92 3.2z"/><path d="m125.22 27.79a19 19 0 0 1 -5.64 7.28c-.16.12-.52-.12-.4-.28a27.07 27.07 0 0 0 3.75-9.87 47.92 47.92 0 0 0 .61-8.64c0-1.48 0-2.4-.12-4.92a33.05 33.05 0 0 1 3.79 1.76h9c1.08-1.32 1.4-1.56 1.72-1.56s.72.24 2.08 1.32c.6.52.84.8.84 1.12s-.24.52-.92 1v2.2c0 2.12.08 3.44.08 5.44 0 1.08-.72 1.48-2 1.48-1 0-1.52-.36-1.52-1.16v-.4h-10a24.5 24.5 0 0 1 -.52 2.68c1.08.48 1.52.68 2.84 1.35h7.76c1.16-1.35 1.48-1.59 1.8-1.59s.76.24 2.08 1.28c.6.47.84.76.84 1.08s-.16.43-.92 1v1.08c0 2.88.12 4.84.12 5.48 0 .88-.72 1.32-2.08 1.32-1.08 0-1.52-.32-1.52-1.12v-.72h-8.32v1.2c0 .88-.68 1.32-2 1.32-1 0-1.51-.36-1.51-1 0-1 .12-2 .12-6.2zm1.78-18.79a27.28 27.28 0 0 1 -7.39 4c-.2.08-.44-.28-.28-.4a32.34 32.34 0 0 0 8.15-8 21.74 21.74 0 0 0 2.37-4.48c4 1.52 4.52 1.76 4.52 2.28s-.44.64-1.6.64l-.16.2c6.12 1.4 8.76 2.92 8.76 5.08a1.56 1.56 0 0 1 -1.37 1.68c-.6 0-1.08-.32-1.8-1.24a18.78 18.78 0 0 0 -6-5 29.08 29.08 0 0 1 -5.08 5.08 7.68 7.68 0 0 0 2 .28h3.6c1.08-1.48 1.56-1.8 1.84-1.8s.8.32 2.08 1.28c.56.44.88.76.88 1s-.12.4-.52.4h-7.88a6.76 6.76 0 0 0 -1.64.24zm-.08 9.2c0 1.16-.16 2.28-.28 3.44h9.88v-3.44zm9.6-4.16h-9.52v3.24h9.56zm.4 13.47h-8.32v6h8.32zm10.08-18.03c0 8.64.2 14.6.2 16.56 0 1.12-.68 1.63-2.08 1.63-1.16 0-1.6-.43-1.6-1.43 0-1.16.16-4.64.16-11.68 0-6.24 0-7.48-.16-10.56 4 .4 4.68.56 4.68 1.2 0 .36-.28.64-1.2 1zm3.84-5a19.27 19.27 0 0 0 -.24-3.36c4.72.6 4.8.64 4.8 1.24 0 .44-.28.76-1 1.12v14.6c0 7.28.2 12.67.2 14.51s-.32 2.48-1.28 3.16a5.3 5.3 0 0 1 -2.92 1c-.92 0-1.2-.2-1.32-1-.2-1.52-.88-2-4.08-3-.2 0-.2-.56 0-.56 1.76.16 3.68.28 5.24.28.52 0 .64-.12.64-.56z"/><path d="m169.37 28.51a5.55 5.55 0 0 0 3.8 3.28 33.17 33.17 0 0 0 9.12.92 133.16 133.16 0 0 0 15.32-1c.2 0 .2.36 0 .44a2.52 2.52 0 0 0 -1.56 2.24c-.12 1.24-.28 1.44-1.68 1.56s-6.16.16-9 .16c-6.6 0-10.56-.52-13.16-2.12-1.92-1.2-3.08-3-4-5.75a31.19 31.19 0 0 1 -4.59 6c.08 1.48-.08 1.8-.68 1.8s-1.48-1.48-3-4.88a17.72 17.72 0 0 0 3-1.12 16.74 16.74 0 0 0 2.6-1.48v-10.56h-2.92a6.73 6.73 0 0 0 -2.16.36l-.44-1.6a10.93 10.93 0 0 0 2.6.32h2.68c1.39-1.64 1.72-1.88 2-1.88s.73.24 2.2 1.48c.68.56.92.84.92 1.16s-.12.4-1.2 1.28zm-2.31-19.43c-.92 0-1.4-.48-2-2.48a11.72 11.72 0 0 0 -2.56-4.68c-.16-.16.12-.4.32-.36 4.67 1.16 6.39 3.08 6.39 5.12a2.17 2.17 0 0 1 -2.15 2.4zm18.31 5.4h5.72c1.72-2.16 2.2-2.48 2.48-2.48s.8.32 2.6 1.72c.8.68 1.12 1 1.12 1.28s-.12.4-.52.4h-23.24a13 13 0 0 0 -2.28.24l-.44-1.48a12.11 12.11 0 0 0 2.72.32h8.16v-6.32h-5.4a23.44 23.44 0 0 1 -4.84 4.6c-.16.12-.48-.12-.36-.28a28.87 28.87 0 0 0 3.72-7.76 32.33 32.33 0 0 0 .88-3.52c3.48.88 4.76 1.36 4.76 1.88s-.52.76-1.6.8a35 35 0 0 1 -1.85 3.36h4.72v-2.52a30.16 30.16 0 0 0 -.31-4.32c4.72.4 5.12.8 5.12 1.16s-.36.72-1.16 1.08v4.6h4.12c1.56-1.92 2-2.24 2.32-2.24s.8.32 2.4 1.6c.68.52 1 .88 1 1.16s-.12.4-.52.4h-9.32zm-7.48 14v.8c0 .92-.76 1.28-2.16 1.28-1.2 0-1.64-.24-1.64-1.12 0-1.08.16-2.19.16-6.63 0-1.76 0-3.52-.12-5.32 1.92.84 2.2 1 4.08 2h10.79c1.32-1.36 1.64-1.6 2-1.6s.72.24 2.08 1.28c.6.48.84.76.84 1.08s-.28.56-1 1.08v1.27c0 3.28.16 5.56.16 6.32 0 1-.76 1.43-2.36 1.43-1 0-1.44-.28-1.44-1v-.92zm11.4-8.07h-11.4v7.15h11.4z"/><path d="m241.5 36.51c-.2.08-.44-.32-.28-.44 10.91-7.76 15.11-16.27 15.11-30.91a25.91 25.91 0 0 0 -.2-3.36c5.24.48 5.8.6 5.8 1.36 0 .4-.2.56-1.4 1.12 0 1.24-.08 2.44-.16 3.68a31.37 31.37 0 0 0 4.63 13.72 26.57 26.57 0 0 0 13 10.47c.2.08.2.44 0 .48-1.4.4-2.08 1.16-2.64 2.88-.24.68-.4.84-.76.84a5.26 5.26 0 0 1 -2.08-1.16 32 32 0 0 1 -9.92-12.87 39.51 39.51 0 0 1 -2.48-10.72c-1.47 12.72-6.79 19.51-18.62 24.91z"/><path d="m303.73 15a3.89 3.89 0 0 0 .24-.6c0-.12-.08-.16-.24-.16-2.44.28-4.68.64-5.76.88a8.51 8.51 0 0 1 -1.84.2 4.12 4.12 0 0 1 -1.92-.68 51.8 51.8 0 0 1 -5.36 6.48 30 30 0 0 1 -5.85 4.63.54.54 0 0 1 -.4.13.34.34 0 0 1 -.36-.36c0-.16 0-.2.32-.44a39.24 39.24 0 0 0 4.91-5.68 76.57 76.57 0 0 0 6-9.88 16.28 16.28 0 0 0 .84-2.16 3.9 3.9 0 0 0 .2-1.12.85.85 0 0 0 -.4-.72 4.1 4.1 0 0 0 -1.08-.4c-.36-.08-.56-.12-.56-.32 0-.36.28-.6.68-.84a2.53 2.53 0 0 1 1.28-.32 5.48 5.48 0 0 1 2.8 1c1.4 1 2 1.88 2 2.52a1.44 1.44 0 0 1 -.84 1.28 3.37 3.37 0 0 0 -1.16 1.4c-.64 1.12-1.12 1.92-1.92 3.08h.6a58.08 58.08 0 0 0 7.52-.88 1.92 1.92 0 0 0 1.08-.4 2.33 2.33 0 0 1 1.2-.6 2.55 2.55 0 0 1 1.52.56c1.28.92 2 1.6 2 2.28s-.32 1-1.08 1.32a3.23 3.23 0 0 0 -1 .84 45.33 45.33 0 0 1 -8 8.88c2.88 1.79 4.48 3.47 4.48 5.23a1.78 1.78 0 0 1 -1.68 2c-1 0-1.52-.48-2.12-1.48a25.52 25.52 0 0 0 -8.44-8.19c-.2-.16-.2-.24-.2-.36s.08-.24.36-.24a2.34 2.34 0 0 1 .72.16 30.6 30.6 0 0 1 5.84 2.28 47.92 47.92 0 0 0 5.62-9.32z"/><path d="m334.13 11.28a16.3 16.3 0 0 1 -.88 4.24 28.73 28.73 0 0 1 -2.52 5.76 33.27 33.27 0 0 1 -4.43 6.72 4.38 4.38 0 0 1 -3.3 1.59 4 4 0 0 1 -3-1.55c-1.44-1.6-2.2-3.64-2.2-7.28a12.49 12.49 0 0 1 1.72-6.08 15.52 15.52 0 0 1 5.39-5.6 17.92 17.92 0 0 1 9.68-2.6 15.31 15.31 0 0 1 9.92 3.12 12.26 12.26 0 0 1 4.68 10.16 10.87 10.87 0 0 1 -3.74 8.24 17.58 17.58 0 0 1 -5.92 3.55 28.46 28.46 0 0 1 -8.2 1.52c-.6 0-.88-.08-.88-.4s.24-.4.76-.52a19.92 19.92 0 0 0 10.28-5.23c2.48-2.56 3.6-5.08 3.6-9.28a8.74 8.74 0 0 0 -3.52-7.52 12.62 12.62 0 0 0 -6.4-2.12 17.93 17.93 0 0 0 -2.52 0 5.49 5.49 0 0 1 1.48 3.28zm-9.71.16a12.18 12.18 0 0 0 -3.4 4.92 10.41 10.41 0 0 0 -.68 3.8 8 8 0 0 0 1 4.32 2.56 2.56 0 0 0 1.76 1.31c.64 0 1.24-.39 2.75-2.55a48.08 48.08 0 0 0 5.36-9.8 9.28 9.28 0 0 0 .84-3.4 2 2 0 0 0 -.72-1.8 13.39 13.39 0 0 0 -6.91 3.2z"/><path d="m374 8.6c0-.6 0-1.2-.08-1.84a42.13 42.13 0 0 0 -.4-5.8c4.92.64 5.12.68 5.12 1.28 0 .36-.36.68-1.2.92 0 2 0 3.76.12 5.44h6.64c2.13-2.4 2.45-2.6 2.8-2.6s.68.24 2.32 1.8c.72.72 1 1 1 1.36s-.16.4-.6.4h-12c.4 5.88 1.12 9.76 2.2 12.68.44-.8.8-1.6 1.16-2.4a27.15 27.15 0 0 0 1.92-6.6c3.4 1 4.56 1.56 4.56 2.2 0 .4-.28.56-1.36.88a36.52 36.52 0 0 1 -4.64 9.36 18.25 18.25 0 0 0 3.32 4.15c1 .92 1.72 1.44 2 1.44.56 0 1.12-.92 2.68-4.23.08-.21.4-.08.4.12-.32 3.75-.36 4.47-.36 5a2.13 2.13 0 0 0 .56 1.6 2.23 2.23 0 0 1 .4 1.32 1.61 1.61 0 0 1 -1.72 1.76c-1.32 0-3-.92-4.84-2.36a24.57 24.57 0 0 1 -5-5.76 30.33 30.33 0 0 1 -12.16 7.6c-.2.08-.4-.28-.24-.4a38.56 38.56 0 0 0 10.81-9.92c-2-4.28-2.88-8.72-3.32-16.44h-12.28c0 2.64 0 4.48-.16 6.8h5.88c1.32-1.64 1.64-1.88 2-1.88s.72.24 2.24 1.6c.68.64.92.92.92 1.24s-.12.4-1.32 1.2c-.4 6.36-.6 8.08-1.24 10.11a3.81 3.81 0 0 1 -1.72 2.24 5.9 5.9 0 0 1 -3 .64c-.52 0-.6-.16-.8-1.08-.44-1.47-.68-1.68-3.27-2.68-.2-.08 0-.51.16-.47a20.91 20.91 0 0 0 3.39.43c1.6 0 1.8-.23 2.24-2.47a51.57 51.57 0 0 0 .68-8h-6.2a45.89 45.89 0 0 1 -1.43 10.76 19.08 19.08 0 0 1 -5.48 8.59c-.16.12-.48-.2-.4-.36a31.31 31.31 0 0 0 3-9.23 78.42 78.42 0 0 0 .7-12.6c0-3.12-.08-5.32-.24-8.16 2.19 1.08 2.52 1.24 4.56 2.36zm9.52-1.2c-.52 0-.64-.12-1-.76a10 10 0 0 0 -3.32-4.08c-.16-.12-.12-.44.08-.44 4.08.32 6 1.6 6 3.36a1.73 1.73 0 0 1 -1.75 1.92z"/><path d="m424.69 19.36c2-2.56 2.48-2.88 2.76-2.88s.76.32 2.72 2c.84.76 1.16 1.12 1.16 1.4s-.12.4-.52.4h-19.28a19.69 19.69 0 0 0 5.12 6.51 28.3 28.3 0 0 0 3.35-3.39 26.46 26.46 0 0 0 1.76-2.6c3.16 1.68 4.16 2.4 4.16 2.88s-.36.64-1.72.6a32.89 32.89 0 0 1 -6.76 3.16 13 13 0 0 0 1.8 1.19 32.48 32.48 0 0 0 12.52 4.12c.2 0 .16.48 0 .52a3.14 3.14 0 0 0 -2.8 2.52c-.24.72-.48 1-1 1a5.79 5.79 0 0 1 -1.88-.48 27.49 27.49 0 0 1 -8.72-5c-3-2.52-4.84-5.63-6.76-11h-4.56v11a67.49 67.49 0 0 0 8.08-1.92c.2-.08.32.49.16.57a64.33 64.33 0 0 1 -15.22 6.04c-.12 1.08-.44 1.52-1 1.52s-.56 0-2-5c1.16 0 2.44-.16 3.84-.32.8-.08 1.6-.2 2.44-.32v-11.6h-3.36a28.74 28.74 0 0 0 -3.44.24l-.48-1.52a23.11 23.11 0 0 0 3.8.32h3.44v-9c0-3 0-6-.33-9.08a19.31 19.31 0 0 1 4.64 2.24h14.32c1.72-2.08 2-2.32 2.36-2.32s.76.24 2.68 1.6c.88.64 1.12.92 1.12 1.24s-.16.4-.6.4h-20.44v4.36h12.6c1.8-2 2.28-2.36 2.56-2.36s.8.32 2.4 1.64c.72.6 1 1 1 1.24s-.12.4-.52.4h-18.04v4.32h12.68c1.8-2 2.28-2.36 2.56-2.36s.8.32 2.4 1.64c.72.6 1 1 1 1.24s-.12.4-.52.4h-18.12v4.44z"/><path d="m481 21.28a30.42 30.42 0 0 1 -6.07 3.36c-.2.08-.52-.36-.36-.48a35.46 35.46 0 0 0 11.76-14.44h-7.75a10.32 10.32 0 0 0 -2.52.32l-.44-1.6a14.4 14.4 0 0 0 3 .32h2.35v-4.88a23.09 23.09 0 0 0 -.28-3.48c4.64.48 5.16.92 5.16 1.36s-.44.72-1.28 1.12v5.88h1.72c1.2-1.32 1.52-1.56 1.84-1.56s.68.24 2 1.64c.6.64.84 1 .84 1.28s-.28.64-1.28 1a27.31 27.31 0 0 1 -5 7c4.28 1.08 6.52 2.72 6.52 4.84a2 2 0 0 1 -2 2c-.92 0-1.32-.4-1.8-1.68a10.42 10.42 0 0 0 -2.8-4.36v4.56c0 6.15.16 10.79.16 12s-.64 1.68-2.51 1.68c-1.08 0-1.49-.44-1.49-1.52 0-.64.2-3 .2-8.79zm20.29 12.72h4c2.2-2.73 2.71-3 2.96-3s.76.32 2.84 2.12c1 .84 1.28 1.2 1.28 1.48s-.12.4-.52.4h-21.12a26.93 26.93 0 0 0 -3.32.24l-.41-1.53a20.5 20.5 0 0 0 3.56.32h6.8v-17.91h-4.6a17.86 17.86 0 0 0 -2.68.24l-.44-1.48a14.4 14.4 0 0 0 3 .32h4.76v-8.72a50.93 50.93 0 0 0 -.31-5.68c5.16.48 5.64.88 5.64 1.36s-.48.8-1.44 1.2v11.84h3.56c2.08-2.44 2.56-2.76 2.84-2.76s.76.32 2.64 1.92c.8.72 1.12 1.08 1.12 1.36s-.12.4-.52.4h-9.64z"/><path d="m516 19.6c-.2.08-.44-.32-.28-.44a41.23 41.23 0 0 0 12.79-13 30.81 30.81 0 0 0 2.8-6.08c5.64 1.52 5.68 1.56 5.68 2s-.32.56-1.76 1a29 29 0 0 0 9.16 8.48 29.33 29.33 0 0 0 9.4 3.24c.2 0 .2.52 0 .52-1.28.12-2.16 1.12-2.76 3.28-.16.56-.36.76-.68.76a5.89 5.89 0 0 1 -1.88-.8 35.68 35.68 0 0 1 -5.68-4 34.2 34.2 0 0 1 -8.08-10.72c-3.86 7.08-9.98 12.16-18.71 15.76zm17.39 3.64a46.1 46.1 0 0 1 -6.32 8.87c5 0 10-.24 15-.52a16.49 16.49 0 0 0 -3.92-5.15c-.16-.12 0-.48.24-.4 5.76 2.12 9.16 5.07 9.16 7.83a2.47 2.47 0 0 1 -2.2 2.72c-1.16 0-1.4-.28-2.4-2.88-.16-.4-.28-.76-.44-1.12a140.24 140.24 0 0 1 -20.62 3.41c-.28 1.2-.47 1.52-1 1.52s-.63 0-2.11-5.56a47.23 47.23 0 0 0 5.15.2h1.48a46.11 46.11 0 0 0 2.64-8.87h-7a19.34 19.34 0 0 0 -2.8.24l-.39-1.53a17 17 0 0 0 3.24.32h23.67c1.92-2.4 2.4-2.72 2.68-2.72s.8.32 2.72 1.88c.88.72 1.2 1.08 1.2 1.36s-.12.4-.52.4zm2.76-7.72c1.76-2.2 2.24-2.52 2.52-2.52s.76.32 2.48 1.76c.76.64 1.08 1 1.08 1.28s-.12.4-.52.4h-13.8a13.84 13.84 0 0 0 -2.36.24l-.44-1.48a13.44 13.44 0 0 0 2.88.32z"/><path d="m570.57 33.19c-3.64 2.24-7.87 3.44-13.43 3.76-.2 0-.28-.4-.08-.48a29.44 29.44 0 0 0 8.83-4.6 11.89 11.89 0 0 0 2.11-2.16c3.28 1.64 4.48 2.4 4.48 2.88s-.23.6-1.91.6zm2.12-29.35h-8a25.62 25.62 0 0 0 -3.23.24l-.46-1.48a20.48 20.48 0 0 0 3.55.32h18.64c1.8-2.08 2.28-2.4 2.56-2.4s.84.32 2.64 1.68c.84.64 1.16 1 1.16 1.24s-.12.4-.52.4h-12.66v4.84h9.88c2-2.4 2.52-2.72 2.8-2.72s.8.32 2.8 1.88c.92.76 1.24 1.08 1.24 1.36s-.12.4-.52.4h-31.67a25.76 25.76 0 0 0 -3.24.24l-.44-1.48a20.5 20.5 0 0 0 3.56.32h11.91zm-6.36 25v.29c0 .95-.72 1.31-2.36 1.31-1.2 0-1.55-.32-1.55-1.24 0-1.79.2-3.59.2-10.79 0-2.4 0-4.8-.16-7.24a29.32 29.32 0 0 1 4.27 1.83h16.08c1.28-1.4 1.6-1.64 1.92-1.64s.76.24 2.28 1.36c.68.52.92.8.92 1.12s-.24.56-1.08 1.2v2.36c0 6.08.16 10.27.16 11.64 0 .95-.68 1.35-2.4 1.35-1.12 0-1.48-.28-1.48-1.16v-.4zm16.8-14.84h-16.8v3.8h16.8zm0 4.76h-16.8v4h16.8zm0 5h-16.8v4.24h16.8zm4.44 13.43c-.84 0-1.32-.24-2.44-1.36a18 18 0 0 0 -8-4.68c-.2 0-.12-.52.08-.52 8.28.08 12.4 1.56 12.4 4.44a2.07 2.07 0 0 1 -2.04 2.04z"/><path d="m609.25 12h3.92c1.4-1.6 1.72-1.84 2-1.84s.72.24 2 1.48c.6.52.84.84.84 1.16s-.12.52-1.08 1.32v3.08c0 14.19.08 15 .08 15.79a3.61 3.61 0 0 1 -1 2.76 4.61 4.61 0 0 1 -3.12.92c-.32 0-.4-.16-.44-.48-.12-1.68-.52-2.24-2.56-2.8-.24-.08-.24-.48 0-.48 1.36.08 2.24.08 3.24.08.36 0 .44-.12.44-.56v-19.55h-11.95v22.87c0 1-.68 1.44-2 1.44-1.16 0-1.56-.4-1.56-1.32 0-2.48.28-5 .28-14.91q0-5.4-.12-10.8a39.45 39.45 0 0 1 3.78 1.84h3.76v-4.8h-6.11a13.42 13.42 0 0 0 -2.32.24l-.47-1.44a12.44 12.44 0 0 0 2.76.32h6.11v-2.72a29.78 29.78 0 0 0 -.2-3.16c4.52.44 5 .88 5 1.32s-.44.68-1.24 1.08v3.44h3.44c1.72-2.2 2.2-2.52 2.48-2.52s.8.32 2.56 1.76c.8.64 1.12 1 1.12 1.28s-.12.4-.52.4h-9.08zm-4.91 15a8.86 8.86 0 0 0 -1.88.24l-.46-1.52a8.21 8.21 0 0 0 2.25.32h1.55v-4.64h-1.2a9.09 9.09 0 0 0 -1.88.24l-.43-1.48a8.08 8.08 0 0 0 2.23.32h3a34 34 0 0 0 1.12-4.12c.2-.88.36-1.76.48-2.68 2.76.92 3.4 1.28 3.4 1.72s-.2.48-1 .64a26.81 26.81 0 0 1 -3.12 4.44h1.4c.8-1.44 1.08-1.68 1.36-1.68s.56.2 1.48 1.16a2 2 0 0 1 .6 1c0 .28-.12.4-.52.4h-3.72v4.64h.8c.8-1.4 1.28-1.72 1.56-1.72s.68.32 1.52 1.2a2.13 2.13 0 0 1 .6 1c0 .27-.12.4-.52.4h-4c0 2.83.16 6.07.16 7.19 0 .84-.72 1.24-2 1.24-1 0-1.44-.28-1.44-1.08 0-.48.08-2.2.08-5.16v-2.07zm-.2-8.88a8 8 0 0 0 -1.17-4c-.08-.16 0-.28.21-.2 2.51 1.2 3.71 2.4 3.71 3.88a1.65 1.65 0 0 1 -1.48 1.72c-.76-.04-1.15-.52-1.27-1.44zm17.19-4a15.58 15.58 0 0 0 -2.52.24l-.44-1.48a13.78 13.78 0 0 0 2.92.32h1.16c.08-2.08.12-4.28.12-6.64a37.19 37.19 0 0 0 -.32-5.64c4.28.44 5.24.68 5.24 1.32 0 .44-.4.68-1.28 1.12-.08 2.6-.12 5.24-.4 9.84h3.19c1.44-1.8 1.92-2.12 2.2-2.12s.76.32 2.08 1.52c.52.48.84.84.84 1.12s-.12.4-.52.4h-7.48a33.43 33.43 0 0 0 3.08 11 21.67 21.67 0 0 0 5.44 7.23c.2.16.12.32-.08.44-1.2.76-1.4 1.4-1.92 3.16-.24.84-.36 1.08-.6 1.08s-.6-.4-1-.92a25.07 25.07 0 0 1 -4.2-10.15 76.41 76.41 0 0 1 -1.24-9.56c-.8 9.8-3.32 15.67-8.68 21-.16.16-.64-.2-.52-.4 3.64-5.56 5.48-12.51 6-22.79zm7.6-5.48a10.1 10.1 0 0 0 -1.8-4.64.17.17 0 0 1 .2-.24c3.12 1.16 4.76 2.6 4.76 4.32a1.94 1.94 0 0 1 -1.76 2.16c-.72-.04-1.16-.52-1.4-1.64z"/></g></svg>