<svg viewBox="0 0 371.47 38" xmlns="http://www.w3.org/2000/svg"><g fill="#54565a" stroke="#54565a" stroke-miterlimit="10" stroke-width=".67"><path d="m153.29 5.81c-.32 3.92-1 8.07-4.06 11.65-3.49 4.15-8.21 5.13-10.35 5.56l-.5-1.28c10.33-2.12 12.88-8.43 13.34-14.58h-15.72v-1.35z"/><path d="m171.6 9a8.63 8.63 0 0 1 -5.79 7.25l-.64-1.14a6.48 6.48 0 0 0 4.92-4.95h-13.38v-1.16zm-14.45 13.47c5.42-2.66 5.49-5.83 5.58-10.44h1.27c-.07 5-.76 8.69-6.09 11.47z"/><path d="m181.31 14.06a24.43 24.43 0 0 0 -6.45-2.76l.62-1.25a26 26 0 0 1 6.52 2.64zm-5.31 7.09c9.41-1 13.33-4.74 16.07-13l1.09.85c-3.19 9-6.68 12.26-16.89 13.72zm7.11-12.38a25.86 25.86 0 0 0 -6.52-2.77l.6-1.21a25.05 25.05 0 0 1 6.54 2.53z"/><path d="m197.93 17.09h-1.36v-12.26h1.36zm12-2.85c0 7.64-6.43 8.76-12.08 9l-.3-1.34c7.07-.21 10.94-1.8 10.94-7.62v-9.84h1.51z"/><path d="m224.43 13c0 7.64-4.36 9.42-8.69 10.35l-.57-1.28c3.15-.59 5.7-1.64 6.93-4.24a13.44 13.44 0 0 0 .91-4.67v-.93h-9.28v-1.3h18.47v1.3h-7.77zm5.9-8v1.29h-14.73v-1.29z"/><path d="m241.07 23.52h-1.25v-8.8a28.73 28.73 0 0 1 -7.62 4.13l-.64-1.21a26.8 26.8 0 0 0 13.18-9.44l1.26.8a30.1 30.1 0 0 1 -4.88 4.76z"/><path d="m253.61 12.31c.75.59 2.78 2.19 4.79 4.12a26.08 26.08 0 0 0 8.25-8.64h-17.26v-1.36h19.43a24.11 24.11 0 0 1 -9.49 10.92 40.62 40.62 0 0 1 4 4.62l-1.14.91a50.66 50.66 0 0 0 -9.44-9.64z"/><path d="m280.13 4h1.34v3.4h6.53v1.21a30.49 30.49 0 0 1 -6.52 6.11v8.85h-1.34v-7.93a35.23 35.23 0 0 1 -8.58 3.87l-.56-1.32c6.06-1.55 12-5.43 15.16-9.51h-13.65v-1.25h7.62zm9.8 15.28a38.14 38.14 0 0 0 -6.73-3.86l.76-1a49.28 49.28 0 0 1 6.68 3.62z"/><path d="m299.46 14.18a32.34 32.34 0 0 0 -6.46-2.69l.59-1.26a28.26 28.26 0 0 1 6.5 2.58zm-5.36 7.13c10.79-1 13.7-6.27 15.78-12.56l1.21.87c-2.78 8.14-7.07 12-16.62 13.2zm7.14-12.47a31.08 31.08 0 0 0 -6.54-2.64l.61-1.2a31.29 31.29 0 0 1 6.54 2.53zm6.4-5.95a21.56 21.56 0 0 1 2 4.47l-1.24.64a22.68 22.68 0 0 0 -1.9-4.52zm3.4-.25a20.94 20.94 0 0 1 2 4.45l-1.25.64a21.62 21.62 0 0 0 -1.94-4.52z"/><path d="m317.56 8a54.76 54.76 0 0 1 7 4.65 36.91 36.91 0 0 0 3.85-8.29l1.44.47a39.88 39.88 0 0 1 -4.2 8.69 47.42 47.42 0 0 1 5.31 4.81l-1.05 1.12a51.7 51.7 0 0 0 -5-4.77 26.13 26.13 0 0 1 -10.7 8.32l-.75-1.23a23.14 23.14 0 0 0 10.3-8 55.32 55.32 0 0 0 -6.95-4.77z"/><path d="m340.91 10.3a26.38 26.38 0 0 0 -7-3.19l.78-1.3a28.78 28.78 0 0 1 7 3.17zm-6.47 10.81a17 17 0 0 0 10.56-3.83 21.13 21.13 0 0 0 6.31-10.17l1.19.93a22.74 22.74 0 0 1 -7 10.6 18.52 18.52 0 0 1 -10.81 4z"/><path d="m370.34 16.55a56.44 56.44 0 0 0 -10.64-5v12h-1.48v-19.5h1.48v6.07a67.43 67.43 0 0 1 11.33 5z"/><path d="m51.61 5.51a37.68 37.68 0 0 1 -6 17l-1.3-.73c3.24-4.76 4.9-9.44 5.77-16.5zm10.39 16.65a48.59 48.59 0 0 0 -5.63-16.28l1.28-.66a50.51 50.51 0 0 1 5.86 16.57zm4.24-16.81a3.19 3.19 0 1 1 -3.19-3.19 3.19 3.19 0 0 1 3.19 3.19zm-5.19 0a2 2 0 1 0 2-2 2 2 0 0 0 -2 2z"/><path d="m87.2 13.08v1.48h-19.65v-1.48z"/><path d="m93.38 13a27.58 27.58 0 0 0 -4-6.25l1.23-.66a26 26 0 0 1 4.15 6.18zm-2 8.82c10.55-2.14 12.9-10.51 14-16.41l1.5.21c-1.16 5.6-3.37 14.7-14.65 17.43z"/><path d="m113.28 10.83c0 5.63-1.14 9.14-4.53 12.51l-1-1c3.92-3.56 4.17-8 4.17-11.44v-5.84h1.34zm5.86 10.48c5.77-1.09 7.16-5.17 7.89-9.37l1.28.53c-.94 4.58-2.69 9.66-10.56 10.51v-18.61h1.39z"/></g><path d="m15.2 22.84h13.03v-22.84h-8v14.85h-5.71z" fill="#98989a"/><path d="m13.38 7.99h5.71l-.69-7.99h-13.02v29.7h8z" fill="#98989a"/><path d="m26.05 33.27a2.37 2.37 0 1 0 2.39 2.37 2.38 2.38 0 0 0 -2.39-2.37m0 4a1.63 1.63 0 1 1 1.56-1.62 1.59 1.59 0 0 1 -1.56 1.62" fill="#98989a"/><path d="m6.67 35.98h2.28v-.73h-2.28v-1.17h2.56v-.73h-3.38v4.57h3.43v-.73h-2.61z" fill="#98989a"/><path d="m31.68 37.19v-3.84h-.82v4.57h3.2v-.73z" fill="#98989a"/><path d="m1.8 33.35h-1.8v4.57h.82v-1.46h1a1.61 1.61 0 0 0 1.72-1.55 1.51 1.51 0 0 0 -1.74-1.56m-.06 2.38h-.92v-1.65h.92c.67 0 1 .37 1 .83a.87.87 0 0 1 -1 .82" fill="#98989a"/><path d="m15.63 34.91a1.51 1.51 0 0 0 -1.72-1.56h-1.8v4.57h.82v-1.46h.9l1 1.46h1l-1.15-1.62a1.53 1.53 0 0 0 1-1.39m-1.79.82h-.91v-1.65h.91c.68 0 1 .37 1 .83s-.36.82-1 .82" fill="#98989a"/><path d="m21 35.6a3.19 3.19 0 0 0 -1.07-.39c-.77-.2-.9-.34-.9-.6s.38-.57.76-.57a2.29 2.29 0 0 1 1.25.42 2.11 2.11 0 0 1 .4.34v-1a3.06 3.06 0 0 0 -1.65-.53 1.41 1.41 0 0 0 -1.54 1.35c0 1 .94 1.21 1.49 1.35.87.22 1.07.35 1.07.7a.41.41 0 0 1 -.21.39 1.3 1.3 0 0 1 -.72.16 2.65 2.65 0 0 1 -1.59-.69v1a3.22 3.22 0 0 0 1.55.48c1.05 0 1.7-.51 1.7-1.33a1.17 1.17 0 0 0 -.54-1.08" fill="#98989a"/></svg>